<svg width="817" height="450" viewBox="0 0 817 450" fill="none" xmlns="http://www.w3.org/2000/svg">
<path d="M570.78 150.539L573.318 178.739C578.112 159.281 590.52 150.539 610.26 150.539H641.562V180.149H613.08C591.366 180.149 582.342 190.583 582.342 213.143V270.389H628.026V299.999H511.56V270.389H549.066V180.149H511.56V150.539H570.78Z" fill="black"/>
<path d="M673.6 225.269C673.6 177.611 701.236 147.155 744.664 147.155C779.632 147.155 811.498 170.279 813.19 224.141V233.729H709.414C711.388 258.545 724.078 273.491 744.664 273.491C758.2 273.491 770.044 265.313 775.402 251.777L810.934 254.879C802.474 284.489 776.248 303.383 744.664 303.383C701.236 303.383 673.6 272.927 673.6 225.269ZM710.26 210.323H777.094C773.146 186.917 759.892 177.047 744.664 177.047C726.052 177.047 713.644 189.173 710.26 210.323Z" fill="black"/>
<path d="M94.6719 198.197C92.1339 184.379 80.8539 177.047 65.6259 177.047C52.6539 177.047 41.6559 182.969 42.2199 194.249C42.7839 206.093 57.1659 209.195 76.6239 213.989C105.952 220.757 131.332 234.011 131.332 259.955C131.332 289.283 105.106 303.383 70.7019 303.383C34.3239 303.383 5.84194 283.361 3.58594 251.777L39.3999 250.085C41.0919 264.749 53.7819 273.491 70.7019 273.491C84.5199 273.491 96.0819 270.107 96.0819 258.827C96.0819 247.265 80.8539 244.445 63.0879 239.933C32.3499 232.601 7.25194 219.911 7.25194 194.531C6.96994 165.203 34.0419 147.155 68.1639 147.155C100.312 147.155 125.974 166.331 130.486 196.505L94.6719 198.197Z" fill="black"/>
<path d="M172.112 99.7793H205.388V215.399L263.198 150.539H308.318L249.944 213.707L311.42 299.999H270.53L227.384 237.959L205.388 263.339V299.999H172.112V99.7793Z" fill="black"/>
<circle cx="399" cy="225" r="75" fill="#3499CD"/>
<path fill-rule="evenodd" clip-rule="evenodd" d="M569 90.5C569 109.554 553.554 125 534.5 125C515.446 125 500 109.554 500 90.5C500 71.4462 515.446 56 534.5 56C553.554 56 569 71.4462 569 90.5ZM307 371C307 399.719 283.719 423 255 423C226.281 423 203 399.719 203 371C203 342.281 226.281 319 255 319C283.719 319 307 342.281 307 371ZM508 351C517.389 351 525 343.389 525 334C525 324.611 517.389 317 508 317C498.611 317 491 324.611 491 334C491 343.389 498.611 351 508 351Z" fill="#F89A36"/>
</svg>
