<svg width="265" height="192" viewBox="0 0 265 192" fill="none" xmlns="http://www.w3.org/2000/svg">
<circle cx="130.166" cy="125.616" r="66.0145" fill="#CBCBCB"/>
<g filter="url(#filter0_f_0_10)">
<path d="M72.427 122.89L79.0214 159.16C79.3372 160.897 80.85 162.159 82.6155 162.159H172.682C174.322 162.159 175.761 161.066 176.201 159.486L189.061 113.293C189.716 110.941 187.925 108.622 185.484 108.66L135.744 109.45C134.043 109.477 132.586 110.674 132.23 112.337L131.625 115.162C131.267 116.833 129.799 118.032 128.09 118.05L75.9835 118.584C73.7198 118.607 72.022 120.663 72.427 122.89Z" fill="#252525"/>
<path d="M72.427 122.89L79.0214 159.16C79.3372 160.897 80.85 162.159 82.6155 162.159H172.682C174.322 162.159 175.761 161.066 176.201 159.486L189.061 113.293C189.716 110.941 187.925 108.622 185.484 108.66L135.744 109.45C134.043 109.477 132.586 110.674 132.23 112.337L131.625 115.162C131.267 116.833 129.799 118.032 128.09 118.05L75.9835 118.584C73.7198 118.607 72.022 120.663 72.427 122.89Z" stroke="#47586D" stroke-width="0.484574"/>
</g>
<path d="M177.014 106.084L170.14 135.201C169.752 136.846 168.285 138.01 166.594 138.014L86.2502 138.213C84.5418 138.217 83.0586 137.037 82.6794 135.371L74.4277 99.1304C73.9029 96.8257 75.672 94.637 78.0354 94.6667L121.362 95.2119C122.995 95.2324 124.416 96.3346 124.842 97.9112L125.008 98.5263C125.436 100.109 126.866 101.213 128.505 101.226L173.489 101.592C175.833 101.611 177.553 103.802 177.014 106.084Z" fill="url(#paint0_linear_0_10)" stroke="#D2D2D2" stroke-width="1.74691"/>
<rect x="25.2814" y="105.172" width="69.8763" height="52.4072" rx="8.56975" transform="rotate(-30.0758 25.2814 105.172)" fill="#E3E3E3"/>
<g filter="url(#filter1_d_0_10)">
<rect x="27.6684" y="105.801" width="66.3825" height="48.9134" rx="7.96245" transform="rotate(-30.0758 27.6684 105.801)" fill="#DDDDDD"/>
</g>
<circle cx="36.6747" cy="108.207" r="1.34957" transform="rotate(-30.0758 36.6747 108.207)" fill="#FB3A6F"/>
<circle cx="41.1126" cy="105.637" r="1.34957" transform="rotate(-30.0758 41.1126 105.637)" fill="#FFBC2D"/>
<circle cx="45.5505" cy="103.067" r="1.34957" transform="rotate(-30.0758 45.5505 103.067)" fill="#87F92D"/>
<rect x="51.8814" y="97.8412" width="34.4814" height="2.69913" rx="1.34957" transform="rotate(-30.0758 51.8814 97.8412)" fill="#CACACA"/>
<rect x="37.9341" y="113.075" width="54.1851" height="9.71689" rx="1.61948" transform="rotate(-30.0758 37.9341 113.075)" fill="#CACACA"/>
<rect x="44.4605" y="124.344" width="36.6851" height="8.73454" rx="1.61948" transform="rotate(-30.0758 44.4605 124.344)" fill="#CACACA"/>
<rect x="50.5887" y="134.926" width="36.6851" height="6.98763" rx="1.61948" transform="rotate(-30.0758 50.5887 134.926)" fill="#CACACA"/>
<path d="M80.0414 105.61C79.5931 104.836 79.8572 103.845 80.6312 103.397L89.922 98.0165C90.696 97.5683 91.6868 97.8324 92.1351 98.6063L100.142 112.432C100.59 113.206 100.326 114.197 99.552 114.645L90.2612 120.026C89.4872 120.474 88.4964 120.21 88.0482 119.436L80.0414 105.61Z" fill="#CACACA"/>
<rect x="176.844" y="78.8886" width="69.8763" height="52.4072" rx="8.56975" transform="rotate(38.7062 176.844 78.8886)" fill="#E3E3E3"/>
<g filter="url(#filter2_d_0_10)">
<rect x="177.115" y="81.3364" width="66.3825" height="48.9134" rx="7.96245" transform="rotate(38.7062 177.115 81.3364)" fill="#DDDDDD"/>
</g>
<circle cx="178.137" cy="90.6105" r="1.34957" transform="rotate(38.7062 178.137 90.6105)" fill="#FB3A6F"/>
<circle cx="182.139" cy="93.8174" r="1.34957" transform="rotate(38.7062 182.139 93.8174)" fill="#FFBC2D"/>
<circle cx="186.141" cy="97.0243" r="1.34957" transform="rotate(38.7062 186.141 97.0243)" fill="#87F92D"/>
<rect x="193.303" y="101.035" width="34.4814" height="2.69913" rx="1.34957" transform="rotate(38.7062 193.303 101.035)" fill="#CACACA"/>
<rect x="174.055" y="93.5462" width="54.1851" height="9.71689" rx="1.61948" transform="rotate(38.7062 174.055 93.5462)" fill="#CACACA"/>
<rect x="165.911" y="103.702" width="36.6851" height="8.73454" rx="1.61948" transform="rotate(38.7062 165.911 103.702)" fill="#CACACA"/>
<rect x="158.264" y="113.245" width="36.6851" height="6.98763" rx="1.61948" transform="rotate(38.7062 158.264 113.245)" fill="#CACACA"/>
<path d="M196.252 130.091C196.812 129.393 197.831 129.281 198.529 129.84L206.907 136.554C207.605 137.113 207.717 138.132 207.158 138.83L197.167 151.298C196.608 151.996 195.589 152.109 194.891 151.549L186.513 144.836C185.815 144.276 185.702 143.257 186.261 142.559L196.252 130.091Z" fill="#CACACA"/>
<rect x="102.555" y="28.2229" width="69.8763" height="52.4072" rx="8.56975" transform="rotate(2.35802 102.555 28.2229)" fill="#E3E3E3"/>
<g filter="url(#filter3_d_0_10)">
<rect x="104.229" y="30.0371" width="66.3825" height="48.9134" rx="7.96245" transform="rotate(2.35802 104.229 30.0371)" fill="#DDDDDD"/>
</g>
<circle cx="110.542" cy="36.8989" r="1.34957" transform="rotate(2.35802 110.542 36.8989)" fill="#FB3A6F"/>
<circle cx="115.666" cy="37.1099" r="1.34957" transform="rotate(2.35802 115.666 37.1099)" fill="#FFBC2D"/>
<circle cx="120.79" cy="37.3209" r="1.34957" transform="rotate(2.35802 120.79 37.3209)" fill="#87F92D"/>
<rect x="128.936" y="36.3054" width="34.4814" height="2.69913" rx="1.34957" transform="rotate(2.35802 128.936 36.3054)" fill="#CACACA"/>
<rect x="108.994" y="41.6826" width="25.3457" height="9.71689" rx="1.61948" transform="rotate(2.35802 108.994 41.6826)" fill="#CACACA"/>
<rect x="137.81" y="42.8692" width="25.3457" height="9.71689" rx="1.61948" transform="rotate(2.35802 137.81 42.8692)" fill="#CACACA"/>
<path d="M108.393 56.3104C108.43 55.4167 109.184 54.7221 110.078 54.7589L120.805 55.2006C121.699 55.2374 122.393 55.9917 122.356 56.8854L121.699 72.8489C121.662 73.7425 120.908 74.4372 120.014 74.4004L109.287 73.9586C108.393 73.9218 107.699 73.1675 107.736 72.2739L108.393 56.3104Z" fill="#CACACA"/>
<rect x="125.914" y="55.4109" width="36.6851" height="8.73454" rx="1.61948" transform="rotate(2.35802 125.914 55.4109)" fill="#CACACA"/>
<rect x="125.411" y="67.6289" width="36.6851" height="6.98763" rx="1.61948" transform="rotate(2.35802 125.411 67.6289)" fill="#CACACA"/>
<g filter="url(#filter4_i_0_10)">
<path d="M72.427 126.389L79.0214 162.658C79.3372 164.395 80.85 165.658 82.6155 165.658H172.682C174.322 165.658 175.761 164.565 176.201 162.985L189.061 116.791C189.716 114.44 187.925 112.12 185.484 112.159L135.744 112.949C134.043 112.976 132.586 114.173 132.23 115.836L131.625 118.661C131.267 120.331 129.799 121.531 128.09 121.548L75.9835 122.083C73.7198 122.106 72.022 124.161 72.427 126.389Z" fill="url(#paint1_linear_0_10)"/>
</g>
<path d="M72.427 126.389L79.0214 162.658C79.3372 164.395 80.85 165.658 82.6155 165.658H172.682C174.322 165.658 175.761 164.565 176.201 162.985L189.061 116.791C189.716 114.44 187.925 112.12 185.484 112.159L135.744 112.949C134.043 112.976 132.586 114.173 132.23 115.836L131.625 118.661C131.267 120.331 129.799 121.531 128.09 121.548L75.9835 122.083C73.7198 122.106 72.022 124.161 72.427 126.389Z" stroke="#CCCCCC" stroke-width="1.48"/>
<g filter="url(#filter5_d_0_10)">
<rect x="-0.816342" y="0.816342" width="20.0587" height="10.2626" rx="5.13129" transform="matrix(-1 0 0 1 84.9024 53.8401)" fill="#3043F0"/>
<rect x="-0.816342" y="0.816342" width="20.0587" height="10.2626" rx="5.13129" transform="matrix(-1 0 0 1 84.9024 53.8401)" stroke="white" stroke-width="1.63268"/>
<path d="M75.7475 56.875L75.274 58.7489L73.5136 57.9508L74.6835 59.4894L72.9619 60.368L74.8942 60.4126L74.5078 62.3064L75.7475 60.8236L76.9872 62.3064L76.6007 60.4126L78.533 60.368L76.8115 59.4894L77.9813 57.9508L76.221 58.7489L75.7475 56.875Z" fill="#050D52"/>
</g>
<g filter="url(#filter6_d_0_10)">
<path d="M92.3436 51.7108C92.6373 51.8523 93.0045 52.3371 92.8663 52.6894C92.7281 53.0417 92.4724 53.4184 92.5549 53.3482C92.7839 53.1123 93.0407 52.905 93.3197 52.7309C93.5175 52.6394 93.7465 52.6445 93.9401 52.7446C94.114 52.8398 94.2622 52.9758 94.3721 53.1409C94.4792 53.3116 94.5181 53.5164 94.4809 53.7145C94.3159 54.0784 94.0894 54.4112 93.8116 54.6983C94.0687 54.4742 94.3524 54.2825 94.6562 54.1277C94.8379 54.101 95.0232 54.1384 95.1802 54.2337C95.3533 54.359 95.5022 54.5147 95.6198 54.6932C95.6978 54.8575 95.7235 55.0417 95.6937 55.221C95.5434 55.5517 95.3425 55.8569 95.098 56.1255C95.0337 56.187 95.308 55.9862 95.5655 55.9334C95.8843 55.7839 96.2639 55.9212 96.4134 56.2399C96.5628 56.5587 96.4256 56.9383 96.1068 57.0878C95.8082 57.3736 95.8219 57.3604 95.6198 57.5538C95.4176 57.7473 95.2384 57.9187 95.0684 58.0814C94.7837 58.3222 94.4811 58.541 94.1634 58.7362C93.854 58.8795 93.5264 58.9797 93.1898 59.0341C92.7282 59.0485 92.2715 59.1324 91.8349 59.2831C91.6517 59.3933 91.4826 59.5255 91.3315 59.6768C91.1883 59.8129 91.0639 59.9675 90.9615 60.1364C90.7617 59.9678 90.5804 59.7783 90.4207 59.5713C90.2768 59.3657 90.4242 58.8022 90.4773 58.637C90.5082 58.5507 90.4878 58.4545 90.4244 58.3883C90.3611 58.3221 90.2658 58.2974 90.1783 58.3245C89.907 58.3905 89.3745 58.4687 89.2287 58.3531C88.8973 58.0804 88.3229 57.4065 87.8481 56.9103C87.8481 56.9103 88.3911 56.558 88.3719 56.2067C88.3526 55.8554 88.3653 55.4824 88.3577 55.2168L88.4155 54.431C88.4078 53.9232 88.5369 53.4226 88.7893 52.9819C89.1288 52.4721 89.3444 52.2835 89.6025 52.2037C89.8319 52.1548 90.0713 52.1921 90.2749 52.3085C90.4285 52.42 90.552 52.568 90.6342 52.7392C90.6828 52.8655 90.6953 53.0028 90.6705 53.1358C90.6292 53.3778 90.5954 53.4805 90.7077 53.285C90.8199 53.0896 90.8381 52.8786 90.9781 52.6478C91.1064 52.3365 91.2877 52.0499 91.514 51.8005C91.7497 51.611 92.0784 51.5878 92.3384 51.7422" fill="#3043F0"/>
<path fill-rule="evenodd" clip-rule="evenodd" d="M92.3436 51.7108C92.6373 51.8523 93.0045 52.3371 92.8663 52.6894C92.7281 53.0417 92.4724 53.4184 92.5549 53.3482C92.7839 53.1123 93.0407 52.905 93.3197 52.7309C93.5175 52.6394 93.7465 52.6445 93.9401 52.7446C94.114 52.8398 94.2622 52.9758 94.3721 53.1409C94.4792 53.3116 94.5181 53.5164 94.4809 53.7145C94.3159 54.0784 94.0894 54.4112 93.8116 54.6983C94.0687 54.4742 94.3524 54.2825 94.6562 54.1277C94.8379 54.101 95.0232 54.1384 95.1802 54.2337C95.3533 54.359 95.5022 54.5147 95.6198 54.6932C95.6978 54.8575 95.7235 55.0417 95.6937 55.221C95.5434 55.5517 95.3425 55.8569 95.098 56.1255C95.0337 56.187 95.308 55.9862 95.5655 55.9334C95.8843 55.7839 96.2639 55.9212 96.4134 56.2399C96.5628 56.5587 96.4256 56.9383 96.1068 57.0878C95.8082 57.3736 95.8219 57.3604 95.6198 57.5538C95.4176 57.7473 95.2384 57.9187 95.0684 58.0814C94.7837 58.3222 94.4811 58.541 94.1634 58.7362C93.854 58.8795 93.5264 58.9797 93.1898 59.0341C92.7282 59.0485 92.2715 59.1324 91.8349 59.2831C91.6517 59.3933 91.4826 59.5255 91.3315 59.6768C91.1883 59.8129 91.0639 59.9675 90.9615 60.1364C90.7617 59.9678 90.5804 59.7783 90.4207 59.5713C90.2768 59.3657 90.4242 58.8022 90.4773 58.637C90.5082 58.5507 90.4878 58.4545 90.4244 58.3883C90.3611 58.3221 90.2658 58.2974 90.1783 58.3245C89.907 58.3905 89.3745 58.4687 89.2287 58.3531C88.8973 58.0804 88.3229 57.4065 87.8481 56.9103C87.8481 56.9103 88.3911 56.558 88.3719 56.2067C88.3526 55.8554 88.3653 55.4824 88.3577 55.2168L88.4155 54.431C88.4078 53.9232 88.5369 53.4226 88.7893 52.9819C89.1288 52.4721 89.3444 52.2835 89.6025 52.2037C89.8319 52.1548 90.0713 52.1921 90.2749 52.3085C90.4285 52.42 90.552 52.568 90.6342 52.7392C90.6828 52.8655 90.6953 53.0028 90.6705 53.1358C90.6292 53.3778 90.5954 53.4805 90.7077 53.285C90.8199 53.0896 90.8381 52.8786 90.9781 52.6478C91.1064 52.3365 91.2877 52.0499 91.514 51.8005C91.7439 51.5985 92.0759 51.5627 92.3436 51.7108Z" stroke="white" stroke-width="0.476957" stroke-linejoin="round"/>
<path d="M92.2241 58.6466L93.8101 57.129C93.9051 57.0381 93.9082 56.8874 93.8172 56.7922C93.7261 56.697 93.5753 56.6935 93.4804 56.7844L91.8944 58.302C91.7994 58.3928 91.7963 58.5436 91.8874 58.6388C91.9784 58.7339 92.1292 58.7374 92.2241 58.6466Z" fill="white"/>
<path d="M91.3542 57.7363L92.9322 56.2087C93.0264 56.1175 93.0285 55.9669 92.9369 55.8723C92.8453 55.7776 92.6947 55.7748 92.6005 55.866L91.0224 57.3936C90.9283 57.4848 90.9262 57.6354 91.0178 57.73C91.1094 57.8247 91.26 57.8275 91.3542 57.7363Z" fill="white"/>
<path d="M91.7191 54.949L90.1451 56.4727C90.0498 56.565 90.0468 56.7165 90.1385 56.8111C90.2301 56.9057 90.3816 56.9076 90.4769 56.8153L92.0508 55.2917C92.1461 55.1994 92.1491 55.0479 92.0575 54.9533C91.9659 54.8587 91.8144 54.8568 91.7191 54.949Z" fill="white"/>
</g>
<g filter="url(#filter7_d_0_10)">
<path d="M229.708 128.523C229.656 128.438 229.729 128.33 229.828 128.348L237.542 129.72C237.64 129.737 237.673 129.862 237.595 129.925L235.339 131.758C235.145 131.916 235.001 132.127 234.925 132.365L234.021 135.21C233.991 135.305 233.862 135.32 233.81 135.235L229.708 128.523Z" fill="#F08B30" stroke="white" stroke-width="1.1662"/>
<rect x="239.969" y="131.165" width="20.0587" height="10.2626" rx="5.13129" fill="#F08B30"/>
<rect x="239.969" y="131.165" width="20.0587" height="10.2626" rx="5.13129" stroke="white" stroke-width="1.63268"/>
<path d="M249.94 133.384L250.712 135.47L252.797 136.242L250.712 137.013L249.94 139.099L249.169 137.013L247.083 136.242L249.169 135.47L249.94 133.384Z" fill="#C0630F"/>
</g>
<defs>
<filter id="filter0_f_0_10" x="50.8034" y="87.0964" width="159.958" height="96.6264" filterUnits="userSpaceOnUse" color-interpolation-filters="sRGB">
<feFlood flood-opacity="0" result="BackgroundImageFix"/>
<feBlend mode="normal" in="SourceGraphic" in2="BackgroundImageFix" result="shape"/>
<feGaussianBlur stdDeviation="10.6606" result="effect1_foregroundBlur_0_10"/>
</filter>
<filter id="filter1_d_0_10" x="0.86021" y="45.9958" width="135.574" height="129.212" filterUnits="userSpaceOnUse" color-interpolation-filters="sRGB">
<feFlood flood-opacity="0" result="BackgroundImageFix"/>
<feColorMatrix in="SourceAlpha" type="matrix" values="0 0 0 0 0 0 0 0 0 0 0 0 0 0 0 0 0 0 127 0" result="hardAlpha"/>
<feMorphology radius="0.202435" operator="dilate" in="SourceAlpha" result="effect1_dropShadow_0_10"/>
<feOffset dy="0.269913"/>
<feGaussianBlur stdDeviation="14.7614"/>
<feComposite in2="hardAlpha" operator="out"/>
<feColorMatrix type="matrix" values="0 0 0 0 0.659814 0 0 0 0 0.659814 0 0 0 0 0.659814 0 0 0 0.61 0"/>
<feBlend mode="normal" in2="BackgroundImageFix" result="effect1_dropShadow_0_10"/>
<feBlend mode="normal" in="SourceGraphic" in2="effect1_dropShadow_0_10" result="shape"/>
</filter>
<filter id="filter2_d_0_10" x="120.033" y="55.1111" width="135.38" height="132.671" filterUnits="userSpaceOnUse" color-interpolation-filters="sRGB">
<feFlood flood-opacity="0" result="BackgroundImageFix"/>
<feColorMatrix in="SourceAlpha" type="matrix" values="0 0 0 0 0 0 0 0 0 0 0 0 0 0 0 0 0 0 127 0" result="hardAlpha"/>
<feMorphology radius="0.202435" operator="dilate" in="SourceAlpha" result="effect1_dropShadow_0_10"/>
<feOffset dy="0.269913"/>
<feGaussianBlur stdDeviation="14.7614"/>
<feComposite in2="hardAlpha" operator="out"/>
<feColorMatrix type="matrix" values="0 0 0 0 0.659814 0 0 0 0 0.659814 0 0 0 0 0.659814 0 0 0 0.61 0"/>
<feBlend mode="normal" in2="BackgroundImageFix" result="effect1_dropShadow_0_10"/>
<feBlend mode="normal" in="SourceGraphic" in2="effect1_dropShadow_0_10" result="shape"/>
</filter>
<filter id="filter3_d_0_10" x="72.8119" y="0.902577" width="127.148" height="110.412" filterUnits="userSpaceOnUse" color-interpolation-filters="sRGB">
<feFlood flood-opacity="0" result="BackgroundImageFix"/>
<feColorMatrix in="SourceAlpha" type="matrix" values="0 0 0 0 0 0 0 0 0 0 0 0 0 0 0 0 0 0 127 0" result="hardAlpha"/>
<feMorphology radius="0.202435" operator="dilate" in="SourceAlpha" result="effect1_dropShadow_0_10"/>
<feOffset dy="0.269913"/>
<feGaussianBlur stdDeviation="14.7614"/>
<feComposite in2="hardAlpha" operator="out"/>
<feColorMatrix type="matrix" values="0 0 0 0 0.659814 0 0 0 0 0.659814 0 0 0 0 0.659814 0 0 0 0.61 0"/>
<feBlend mode="normal" in2="BackgroundImageFix" result="effect1_dropShadow_0_10"/>
<feBlend mode="normal" in="SourceGraphic" in2="effect1_dropShadow_0_10" result="shape"/>
</filter>
<filter id="filter4_i_0_10" x="71.6268" y="111.419" width="118.311" height="55.5882" filterUnits="userSpaceOnUse" color-interpolation-filters="sRGB">
<feFlood flood-opacity="0" result="BackgroundImageFix"/>
<feBlend mode="normal" in="SourceGraphic" in2="BackgroundImageFix" result="shape"/>
<feColorMatrix in="SourceAlpha" type="matrix" values="0 0 0 0 0 0 0 0 0 0 0 0 0 0 0 0 0 0 127 0" result="hardAlpha"/>
<feOffset dy="0.608823"/>
<feGaussianBlur stdDeviation="8.09238"/>
<feComposite in2="hardAlpha" operator="arithmetic" k2="-1" k3="1"/>
<feColorMatrix type="matrix" values="0 0 0 0 0.996549 0 0 0 0 0.996549 0 0 0 0 0.996549 0 0 0 1 0"/>
<feBlend mode="normal" in2="shape" result="effect1_innerShadow_0_10"/>
</filter>
<filter id="filter5_d_0_10" x="61.2635" y="44.1939" width="42.1466" height="25.5881" filterUnits="userSpaceOnUse" color-interpolation-filters="sRGB">
<feFlood flood-opacity="0" result="BackgroundImageFix"/>
<feColorMatrix in="SourceAlpha" type="matrix" values="0 0 0 0 0 0 0 0 0 0 0 0 0 0 0 0 0 0 127 0" result="hardAlpha"/>
<feOffset dy="0.466481"/>
<feGaussianBlur stdDeviation="1.79012"/>
<feComposite in2="hardAlpha" operator="out"/>
<feColorMatrix type="matrix" values="0 0 0 0 0 0 0 0 0 0 0 0 0 0 0 0 0 0 0.25 0"/>
<feBlend mode="normal" in2="BackgroundImageFix" result="effect1_dropShadow_0_10"/>
<feBlend mode="normal" in="SourceGraphic" in2="effect1_dropShadow_0_10" result="shape"/>
</filter>
<filter id="filter6_d_0_10" x="87.1009" y="51.3817" width="10.1202" height="10.1379" filterUnits="userSpaceOnUse" color-interpolation-filters="sRGB">
<feFlood flood-opacity="0" result="BackgroundImageFix"/>
<feColorMatrix in="SourceAlpha" type="matrix" values="0 0 0 0 0 0 0 0 0 0 0 0 0 0 0 0 0 0 127 0" result="hardAlpha"/>
<feOffset dy="0.635943"/>
<feGaussianBlur stdDeviation="0.254377"/>
<feColorMatrix type="matrix" values="0 0 0 0 0 0 0 0 0 0 0 0 0 0 0 0 0 0 0.5 0"/>
<feBlend mode="normal" in2="BackgroundImageFix" result="effect1_dropShadow_0_10"/>
<feBlend mode="normal" in="SourceGraphic" in2="effect1_dropShadow_0_10" result="shape"/>
</filter>
<filter id="filter7_d_0_10" x="222.277" y="120.703" width="42.1468" height="25.5884" filterUnits="userSpaceOnUse" color-interpolation-filters="sRGB">
<feFlood flood-opacity="0" result="BackgroundImageFix"/>
<feColorMatrix in="SourceAlpha" type="matrix" values="0 0 0 0 0 0 0 0 0 0 0 0 0 0 0 0 0 0 127 0" result="hardAlpha"/>
<feOffset dy="0.466481"/>
<feGaussianBlur stdDeviation="1.79012"/>
<feComposite in2="hardAlpha" operator="out"/>
<feColorMatrix type="matrix" values="0 0 0 0 0 0 0 0 0 0 0 0 0 0 0 0 0 0 0.25 0"/>
<feBlend mode="normal" in2="BackgroundImageFix" result="effect1_dropShadow_0_10"/>
<feBlend mode="normal" in="SourceGraphic" in2="effect1_dropShadow_0_10" result="shape"/>
</filter>
<linearGradient id="paint0_linear_0_10" x1="125.732" y1="94.6084" x2="125.732" y2="138.22" gradientUnits="userSpaceOnUse">
<stop stop-color="#EAEAEA"/>
<stop offset="1" stop-color="#CACACA"/>
</linearGradient>
<linearGradient id="paint1_linear_0_10" x1="139.231" y1="119.083" x2="131.012" y2="174.486" gradientUnits="userSpaceOnUse">
<stop stop-color="#DDDDDD"/>
<stop offset="1" stop-color="#B8B8B8"/>
</linearGradient>
</defs>
</svg>
