<svg width="264" height="192" viewBox="0 0 264 192" fill="none" xmlns="http://www.w3.org/2000/svg">
<circle cx="129.322" cy="125.246" r="66.0145" fill="#333333"/>
<g filter="url(#filter0_f_3_343)">
<path d="M71.5832 122.52L78.1777 158.79C78.4935 160.527 80.0063 161.789 81.7717 161.789H171.838C173.478 161.789 174.917 160.696 175.357 159.116L188.218 112.923C188.872 110.571 187.081 108.252 184.641 108.29L134.9 109.08C133.2 109.107 131.743 110.304 131.386 111.967L130.781 114.792C130.423 116.463 128.955 117.662 127.247 117.679L75.1398 118.214C72.876 118.237 71.1782 120.293 71.5832 122.52Z" fill="#252525"/>
<path d="M71.5832 122.52L78.1777 158.79C78.4935 160.527 80.0063 161.789 81.7717 161.789H171.838C173.478 161.789 174.917 160.696 175.357 159.116L188.218 112.923C188.872 110.571 187.081 108.252 184.641 108.29L134.9 109.08C133.2 109.107 131.743 110.304 131.386 111.967L130.781 114.792C130.423 116.463 128.955 117.662 127.247 117.679L75.1398 118.214C72.876 118.237 71.1782 120.293 71.5832 122.52Z" stroke="#47586D" stroke-width="0.484574"/>
</g>
<path d="M176.171 105.714L169.297 134.831C168.908 136.476 167.441 137.64 165.75 137.644L85.4064 137.843C83.6981 137.847 82.2149 136.666 81.8356 135.001L73.584 98.7602C73.0592 96.4556 74.8282 94.2669 77.1917 94.2966L120.518 94.8417C122.151 94.8623 123.572 95.9644 123.998 97.5411L124.165 98.1562C124.592 99.7387 126.022 100.842 127.661 100.856L172.645 101.221C174.989 101.241 176.709 103.432 176.171 105.714Z" fill="url(#paint0_linear_3_343)" stroke="#404040" stroke-width="1.74691"/>
<rect x="24.4377" y="104.802" width="69.8763" height="52.4072" rx="8.56975" transform="rotate(-30.0758 24.4377 104.802)" fill="#1A1A1A"/>
<g filter="url(#filter1_d_3_343)">
<rect x="26.8247" y="105.431" width="66.3825" height="48.9134" rx="7.96245" transform="rotate(-30.0758 26.8247 105.431)" fill="#222222"/>
</g>
<circle cx="35.831" cy="107.837" r="1.34957" transform="rotate(-30.0758 35.831 107.837)" fill="#FB3A6F"/>
<circle cx="40.2689" cy="105.267" r="1.34957" transform="rotate(-30.0758 40.2689 105.267)" fill="#FFBC2D"/>
<circle cx="44.7068" cy="102.697" r="1.34957" transform="rotate(-30.0758 44.7068 102.697)" fill="#87F92D"/>
<rect x="51.0377" y="97.4711" width="34.4814" height="2.69913" rx="1.34957" transform="rotate(-30.0758 51.0377 97.4711)" fill="#3B3B3B"/>
<rect x="37.0904" y="112.705" width="54.1851" height="9.71689" rx="1.61948" transform="rotate(-30.0758 37.0904 112.705)" fill="#3B3B3B"/>
<rect x="43.6167" y="123.974" width="36.6851" height="8.73454" rx="1.61948" transform="rotate(-30.0758 43.6167 123.974)" fill="#3B3B3B"/>
<rect x="49.7449" y="134.556" width="36.6851" height="6.98763" rx="1.61948" transform="rotate(-30.0758 49.7449 134.556)" fill="#3B3B3B"/>
<path d="M79.1976 105.24C78.7494 104.466 79.0135 103.475 79.7875 103.027L89.0783 97.6464C89.8523 97.1982 90.8431 97.4622 91.2913 98.2362L99.2981 112.062C99.7464 112.836 99.4823 113.827 98.7083 114.275L89.4175 119.656C88.6435 120.104 87.6527 119.84 87.2045 119.066L79.1976 105.24Z" fill="#3B3B3B"/>
<rect x="176" y="78.5185" width="69.8763" height="52.4072" rx="8.56975" transform="rotate(38.7062 176 78.5185)" fill="#1A1A1A"/>
<g filter="url(#filter2_d_3_343)">
<rect x="176.271" y="80.9663" width="66.3825" height="48.9134" rx="7.96245" transform="rotate(38.7062 176.271 80.9663)" fill="#222222"/>
</g>
<circle cx="177.293" cy="90.2404" r="1.34957" transform="rotate(38.7062 177.293 90.2404)" fill="#FB3A6F"/>
<circle cx="181.295" cy="93.4473" r="1.34957" transform="rotate(38.7062 181.295 93.4473)" fill="#FFBC2D"/>
<circle cx="185.297" cy="96.6542" r="1.34957" transform="rotate(38.7062 185.297 96.6542)" fill="#87F92D"/>
<rect x="192.46" y="100.665" width="34.4814" height="2.69913" rx="1.34957" transform="rotate(38.7062 192.46 100.665)" fill="#3B3B3B"/>
<rect x="173.211" y="93.1761" width="54.1851" height="9.71689" rx="1.61948" transform="rotate(38.7062 173.211 93.1761)" fill="#3B3B3B"/>
<rect x="165.067" y="103.332" width="36.6851" height="8.73454" rx="1.61948" transform="rotate(38.7062 165.067 103.332)" fill="#3B3B3B"/>
<rect x="157.42" y="112.875" width="36.6851" height="6.98763" rx="1.61948" transform="rotate(38.7062 157.42 112.875)" fill="#3B3B3B"/>
<path d="M195.409 129.721C195.968 129.023 196.987 128.911 197.685 129.47L206.063 136.184C206.761 136.743 206.874 137.762 206.314 138.46L196.323 150.928C195.764 151.626 194.745 151.738 194.047 151.179L185.669 144.465C184.971 143.906 184.858 142.887 185.418 142.189L195.409 129.721Z" fill="#3B3B3B"/>
<rect x="101.711" y="27.8529" width="69.8763" height="52.4072" rx="8.56975" transform="rotate(2.35802 101.711 27.8529)" fill="#1A1A1A"/>
<g filter="url(#filter3_d_3_343)">
<rect x="103.385" y="29.6671" width="66.3825" height="48.9134" rx="7.96245" transform="rotate(2.35802 103.385 29.6671)" fill="#222222"/>
</g>
<circle cx="109.699" cy="36.5289" r="1.34957" transform="rotate(2.35802 109.699 36.5289)" fill="#FB3A6F"/>
<circle cx="114.823" cy="36.7399" r="1.34957" transform="rotate(2.35802 114.823 36.7399)" fill="#FFBC2D"/>
<circle cx="119.947" cy="36.9509" r="1.34957" transform="rotate(2.35802 119.947 36.9509)" fill="#87F92D"/>
<rect x="128.092" y="35.9354" width="34.4814" height="2.69913" rx="1.34957" transform="rotate(2.35802 128.092 35.9354)" fill="#3B3B3B"/>
<rect x="108.151" y="41.3127" width="25.3457" height="9.71689" rx="1.61948" transform="rotate(2.35802 108.151 41.3127)" fill="#3B3B3B"/>
<rect x="136.966" y="42.4992" width="25.3457" height="9.71689" rx="1.61948" transform="rotate(2.35802 136.966 42.4992)" fill="#3B3B3B"/>
<path d="M107.549 55.9404C107.586 55.0468 108.34 54.3522 109.234 54.389L119.961 54.8307C120.855 54.8675 121.55 55.6218 121.513 56.5154L120.855 72.4789C120.819 73.3726 120.064 74.0672 119.171 74.0304L108.443 73.5887C107.55 73.5519 106.855 72.7976 106.892 71.9039L107.549 55.9404Z" fill="#3B3B3B"/>
<rect x="125.07" y="55.0409" width="36.6851" height="8.73454" rx="1.61948" transform="rotate(2.35802 125.07 55.0409)" fill="#3B3B3B"/>
<rect x="124.567" y="67.2589" width="36.6851" height="6.98763" rx="1.61948" transform="rotate(2.35802 124.567 67.2589)" fill="#3B3B3B"/>
<g filter="url(#filter4_i_3_343)">
<path d="M71.5832 126.019L78.1777 162.288C78.4935 164.025 80.0063 165.288 81.7717 165.288H171.838C173.478 165.288 174.917 164.195 175.357 162.615L188.218 116.421C188.872 114.07 187.081 111.75 184.641 111.789L134.9 112.578C133.2 112.605 131.743 113.802 131.386 115.465L130.781 118.291C130.423 119.961 128.955 121.16 127.247 121.178L75.1398 121.712C72.876 121.736 71.1782 123.791 71.5832 126.019Z" fill="url(#paint1_linear_3_343)"/>
</g>
<path d="M71.5832 126.019L78.1777 162.288C78.4935 164.025 80.0063 165.288 81.7717 165.288H171.838C173.478 165.288 174.917 164.195 175.357 162.615L188.218 116.421C188.872 114.07 187.081 111.75 184.641 111.789L134.9 112.578C133.2 112.605 131.743 113.802 131.386 115.465L130.781 118.291C130.423 119.961 128.955 121.16 127.247 121.178L75.1398 121.712C72.876 121.736 71.1782 123.791 71.5832 126.019Z" stroke="#3D3D3D" stroke-width="0.484574"/>
<g filter="url(#filter5_d_3_343)">
<rect x="-0.816342" y="0.816342" width="20.0587" height="10.2626" rx="5.13129" transform="matrix(-1 0 0 1 84.0586 53.4699)" fill="#3043F0"/>
<rect x="-0.816342" y="0.816342" width="20.0587" height="10.2626" rx="5.13129" transform="matrix(-1 0 0 1 84.0586 53.4699)" stroke="white" stroke-width="1.63268"/>
<path d="M74.9037 56.5049L74.4302 58.3788L72.6699 57.5807L73.8397 59.1192L72.1182 59.9979L74.0505 60.0425L73.664 61.9363L74.9037 60.4534L76.1434 61.9363L75.757 60.0425L77.6893 59.9979L75.9677 59.1192L77.1376 57.5807L75.3772 58.3788L74.9037 56.5049Z" fill="#050D52"/>
</g>
<g filter="url(#filter6_d_3_343)">
<path d="M91.5008 51.3407C91.7946 51.4821 92.1617 51.967 92.0235 52.3193C91.8853 52.6716 91.6296 53.0483 91.7121 52.9781C91.9411 52.7421 92.1979 52.5348 92.4769 52.3608C92.6747 52.2693 92.9037 52.2743 93.0973 52.3744C93.2712 52.4697 93.4195 52.6057 93.5293 52.7708C93.6365 52.9415 93.6753 53.1463 93.6382 53.3444C93.4731 53.7083 93.2467 54.041 92.9688 54.3282C93.2259 54.1041 93.5096 53.9124 93.8135 53.7576C93.9951 53.7308 94.1804 53.7683 94.3374 53.8636C94.5105 53.9889 94.6595 54.1446 94.777 54.323C94.855 54.4873 94.8808 54.6715 94.8509 54.8509C94.7007 55.1816 94.4997 55.4868 94.2552 55.7554C94.1909 55.8169 94.4652 55.6161 94.7227 55.5633C95.0415 55.4138 95.4211 55.551 95.5706 55.8698C95.7201 56.1886 95.5828 56.5682 95.264 56.7176C94.9654 57.0034 94.9792 56.9902 94.777 57.1837C94.5748 57.3771 94.3956 57.5486 94.2256 57.7113C93.9409 57.952 93.6384 58.1709 93.3206 58.366C93.0112 58.5093 92.6836 58.6096 92.347 58.6639C91.8854 58.6783 91.4287 58.7623 90.9922 58.913C90.8089 59.0232 90.6398 59.1554 90.4887 59.3067C90.3455 59.4428 90.2211 59.5974 90.1188 59.7663C89.9189 59.5977 89.7377 59.4082 89.578 59.2011C89.4341 58.9956 89.5814 58.4321 89.6345 58.2668C89.6655 58.1806 89.645 58.0843 89.5817 58.0182C89.5183 57.952 89.4231 57.9273 89.3356 57.9544C89.0642 58.0204 88.5318 58.0986 88.3859 57.9829C88.0545 57.7103 87.4802 57.0364 87.0053 56.5402C87.0053 56.5402 87.5483 56.1878 87.5291 55.8366C87.5098 55.4853 87.5226 55.1123 87.5149 54.8467L87.5727 54.0609C87.565 53.553 87.6941 53.0525 87.9465 52.6118C88.2861 52.102 88.5016 51.9133 88.7597 51.8336C88.9891 51.7846 89.2285 51.8219 89.4321 51.9383C89.5858 52.0499 89.7093 52.1979 89.7915 52.3691C89.84 52.4954 89.8525 52.6327 89.8277 52.7657C89.7864 53.0077 89.7526 53.1104 89.8649 52.9149C89.9771 52.7195 89.9953 52.5085 90.1353 52.2777C90.2636 51.9664 90.445 51.6797 90.6712 51.4304C90.907 51.2409 91.2356 51.2177 91.4956 51.3721" fill="#3043F0"/>
<path fill-rule="evenodd" clip-rule="evenodd" d="M91.5008 51.3407C91.7946 51.4821 92.1617 51.967 92.0235 52.3193C91.8853 52.6716 91.6296 53.0483 91.7121 52.9781C91.9411 52.7421 92.1979 52.5348 92.4769 52.3608C92.6747 52.2693 92.9037 52.2743 93.0973 52.3744C93.2712 52.4697 93.4195 52.6057 93.5293 52.7708C93.6365 52.9415 93.6753 53.1463 93.6382 53.3444C93.4731 53.7083 93.2467 54.041 92.9688 54.3282C93.2259 54.1041 93.5096 53.9124 93.8135 53.7576C93.9951 53.7308 94.1804 53.7683 94.3374 53.8636C94.5105 53.9889 94.6595 54.1446 94.777 54.323C94.855 54.4873 94.8808 54.6715 94.8509 54.8509C94.7007 55.1816 94.4997 55.4868 94.2552 55.7554C94.1909 55.8169 94.4652 55.6161 94.7227 55.5633C95.0415 55.4138 95.4211 55.551 95.5706 55.8698C95.7201 56.1886 95.5828 56.5682 95.264 56.7176C94.9654 57.0034 94.9792 56.9902 94.777 57.1837C94.5748 57.3771 94.3956 57.5486 94.2256 57.7113C93.9409 57.952 93.6384 58.1709 93.3206 58.366C93.0112 58.5093 92.6836 58.6096 92.347 58.6639C91.8854 58.6783 91.4287 58.7623 90.9922 58.913C90.8089 59.0232 90.6398 59.1554 90.4887 59.3067C90.3455 59.4428 90.2211 59.5974 90.1188 59.7663C89.9189 59.5977 89.7377 59.4082 89.578 59.2011C89.4341 58.9956 89.5814 58.4321 89.6345 58.2668C89.6655 58.1806 89.645 58.0843 89.5817 58.0182C89.5183 57.952 89.4231 57.9273 89.3356 57.9544C89.0642 58.0204 88.5318 58.0986 88.3859 57.9829C88.0545 57.7103 87.4802 57.0364 87.0053 56.5402C87.0053 56.5402 87.5483 56.1878 87.5291 55.8366C87.5098 55.4853 87.5226 55.1123 87.5149 54.8467L87.5727 54.0609C87.565 53.553 87.6941 53.0525 87.9465 52.6118C88.2861 52.102 88.5016 51.9133 88.7597 51.8336C88.9891 51.7846 89.2285 51.8219 89.4321 51.9383C89.5858 52.0499 89.7093 52.1979 89.7915 52.3691C89.84 52.4954 89.8525 52.6327 89.8277 52.7657C89.7864 53.0077 89.7526 53.1104 89.8649 52.9149C89.9771 52.7195 89.9953 52.5085 90.1353 52.2777C90.2636 51.9664 90.445 51.6797 90.6712 51.4304C90.9011 51.2284 91.2331 51.1925 91.5008 51.3407Z" stroke="white" stroke-width="0.476957" stroke-linejoin="round"/>
<path d="M91.3814 58.2765L92.9674 56.7589C93.0623 56.668 93.0654 56.5172 92.9744 56.4221C92.8833 56.3269 92.7325 56.3234 92.6376 56.4142L91.0516 57.9319C90.9567 58.0227 90.9535 58.1735 91.0446 58.2687C91.1356 58.3638 91.2864 58.3673 91.3814 58.2765Z" fill="white"/>
<path d="M90.5114 57.3662L92.0894 55.8386C92.1836 55.7474 92.1857 55.5968 92.0941 55.5021C92.0025 55.4075 91.8519 55.4047 91.7577 55.4959L90.1797 57.0235C90.0855 57.1146 90.0834 57.2653 90.175 57.3599C90.2666 57.4545 90.4172 57.4573 90.5114 57.3662Z" fill="white"/>
<path d="M90.8763 54.5789L89.3024 56.1026C89.2071 56.1948 89.2041 56.3463 89.2957 56.441C89.3873 56.5356 89.5388 56.5375 89.6341 56.4452L91.2081 54.9216C91.3034 54.8293 91.3064 54.6778 91.2147 54.5832C91.1231 54.4885 90.9716 54.4866 90.8763 54.5789Z" fill="white"/>
</g>
<g filter="url(#filter7_d_3_343)">
<path d="M228.984 127.978L236.698 129.349C236.796 129.367 236.829 129.492 236.751 129.555L234.495 131.388C234.301 131.546 234.157 131.757 234.082 131.995L233.177 134.839C233.147 134.935 233.019 134.95 232.967 134.865L228.864 128.153C228.812 128.068 228.885 127.96 228.984 127.978Z" fill="#F08B30" stroke="white" stroke-width="1.1662"/>
<rect x="239.125" y="130.795" width="20.0587" height="10.2626" rx="5.13129" fill="#F08B30"/>
<rect x="239.125" y="130.795" width="20.0587" height="10.2626" rx="5.13129" stroke="white" stroke-width="1.63268"/>
<path d="M249.096 133.014L249.868 135.1L251.954 135.871L249.868 136.643L249.096 138.729L248.325 136.643L246.239 135.871L248.325 135.1L249.096 133.014Z" fill="#C0630F"/>
</g>
<defs>
<filter id="filter0_f_3_343" x="49.9597" y="86.7263" width="159.958" height="96.6264" filterUnits="userSpaceOnUse" color-interpolation-filters="sRGB">
<feFlood flood-opacity="0" result="BackgroundImageFix"/>
<feBlend mode="normal" in="SourceGraphic" in2="BackgroundImageFix" result="shape"/>
<feGaussianBlur stdDeviation="10.6606" result="effect1_foregroundBlur_3_343"/>
</filter>
<filter id="filter1_d_3_343" x="0.0164751" y="45.6257" width="135.574" height="129.212" filterUnits="userSpaceOnUse" color-interpolation-filters="sRGB">
<feFlood flood-opacity="0" result="BackgroundImageFix"/>
<feColorMatrix in="SourceAlpha" type="matrix" values="0 0 0 0 0 0 0 0 0 0 0 0 0 0 0 0 0 0 127 0" result="hardAlpha"/>
<feMorphology radius="0.202435" operator="dilate" in="SourceAlpha" result="effect1_dropShadow_3_343"/>
<feOffset dy="0.269913"/>
<feGaussianBlur stdDeviation="14.7614"/>
<feComposite in2="hardAlpha" operator="out"/>
<feColorMatrix type="matrix" values="0 0 0 0 0.0297038 0 0 0 0 0.0297038 0 0 0 0 0.0297038 0 0 0 1 0"/>
<feBlend mode="normal" in2="BackgroundImageFix" result="effect1_dropShadow_3_343"/>
<feBlend mode="normal" in="SourceGraphic" in2="effect1_dropShadow_3_343" result="shape"/>
</filter>
<filter id="filter2_d_3_343" x="119.189" y="54.741" width="135.38" height="132.671" filterUnits="userSpaceOnUse" color-interpolation-filters="sRGB">
<feFlood flood-opacity="0" result="BackgroundImageFix"/>
<feColorMatrix in="SourceAlpha" type="matrix" values="0 0 0 0 0 0 0 0 0 0 0 0 0 0 0 0 0 0 127 0" result="hardAlpha"/>
<feMorphology radius="0.202435" operator="dilate" in="SourceAlpha" result="effect1_dropShadow_3_343"/>
<feOffset dy="0.269913"/>
<feGaussianBlur stdDeviation="14.7614"/>
<feComposite in2="hardAlpha" operator="out"/>
<feColorMatrix type="matrix" values="0 0 0 0 0.0297038 0 0 0 0 0.0297038 0 0 0 0 0.0297038 0 0 0 1 0"/>
<feBlend mode="normal" in2="BackgroundImageFix" result="effect1_dropShadow_3_343"/>
<feBlend mode="normal" in="SourceGraphic" in2="effect1_dropShadow_3_343" result="shape"/>
</filter>
<filter id="filter3_d_3_343" x="71.9682" y="0.532612" width="127.148" height="110.412" filterUnits="userSpaceOnUse" color-interpolation-filters="sRGB">
<feFlood flood-opacity="0" result="BackgroundImageFix"/>
<feColorMatrix in="SourceAlpha" type="matrix" values="0 0 0 0 0 0 0 0 0 0 0 0 0 0 0 0 0 0 127 0" result="hardAlpha"/>
<feMorphology radius="0.202435" operator="dilate" in="SourceAlpha" result="effect1_dropShadow_3_343"/>
<feOffset dy="0.269913"/>
<feGaussianBlur stdDeviation="14.7614"/>
<feComposite in2="hardAlpha" operator="out"/>
<feColorMatrix type="matrix" values="0 0 0 0 0.0297038 0 0 0 0 0.0297038 0 0 0 0 0.0297038 0 0 0 1 0"/>
<feBlend mode="normal" in2="BackgroundImageFix" result="effect1_dropShadow_3_343"/>
<feBlend mode="normal" in="SourceGraphic" in2="effect1_dropShadow_3_343" result="shape"/>
</filter>
<filter id="filter4_i_3_343" x="71.2809" y="111.546" width="117.315" height="54.5927" filterUnits="userSpaceOnUse" color-interpolation-filters="sRGB">
<feFlood flood-opacity="0" result="BackgroundImageFix"/>
<feBlend mode="normal" in="SourceGraphic" in2="BackgroundImageFix" result="shape"/>
<feColorMatrix in="SourceAlpha" type="matrix" values="0 0 0 0 0 0 0 0 0 0 0 0 0 0 0 0 0 0 127 0" result="hardAlpha"/>
<feOffset dy="0.608823"/>
<feGaussianBlur stdDeviation="8.09238"/>
<feComposite in2="hardAlpha" operator="arithmetic" k2="-1" k3="1"/>
<feColorMatrix type="matrix" values="0 0 0 0 0.112386 0 0 0 0 0.112386 0 0 0 0 0.112386 0 0 0 1 0"/>
<feBlend mode="normal" in2="shape" result="effect1_innerShadow_3_343"/>
</filter>
<filter id="filter5_d_3_343" x="60.4197" y="43.8238" width="42.1466" height="25.5881" filterUnits="userSpaceOnUse" color-interpolation-filters="sRGB">
<feFlood flood-opacity="0" result="BackgroundImageFix"/>
<feColorMatrix in="SourceAlpha" type="matrix" values="0 0 0 0 0 0 0 0 0 0 0 0 0 0 0 0 0 0 127 0" result="hardAlpha"/>
<feOffset dy="0.466481"/>
<feGaussianBlur stdDeviation="1.79012"/>
<feComposite in2="hardAlpha" operator="out"/>
<feColorMatrix type="matrix" values="0 0 0 0 0 0 0 0 0 0 0 0 0 0 0 0 0 0 0.25 0"/>
<feBlend mode="normal" in2="BackgroundImageFix" result="effect1_dropShadow_3_343"/>
<feBlend mode="normal" in="SourceGraphic" in2="effect1_dropShadow_3_343" result="shape"/>
</filter>
<filter id="filter6_d_3_343" x="86.2581" y="51.0116" width="10.1202" height="10.1379" filterUnits="userSpaceOnUse" color-interpolation-filters="sRGB">
<feFlood flood-opacity="0" result="BackgroundImageFix"/>
<feColorMatrix in="SourceAlpha" type="matrix" values="0 0 0 0 0 0 0 0 0 0 0 0 0 0 0 0 0 0 127 0" result="hardAlpha"/>
<feOffset dy="0.635943"/>
<feGaussianBlur stdDeviation="0.254377"/>
<feColorMatrix type="matrix" values="0 0 0 0 0 0 0 0 0 0 0 0 0 0 0 0 0 0 0.5 0"/>
<feBlend mode="normal" in2="BackgroundImageFix" result="effect1_dropShadow_3_343"/>
<feBlend mode="normal" in="SourceGraphic" in2="effect1_dropShadow_3_343" result="shape"/>
</filter>
<filter id="filter7_d_3_343" x="221.433" y="120.333" width="42.1468" height="25.5884" filterUnits="userSpaceOnUse" color-interpolation-filters="sRGB">
<feFlood flood-opacity="0" result="BackgroundImageFix"/>
<feColorMatrix in="SourceAlpha" type="matrix" values="0 0 0 0 0 0 0 0 0 0 0 0 0 0 0 0 0 0 127 0" result="hardAlpha"/>
<feOffset dy="0.466481"/>
<feGaussianBlur stdDeviation="1.79012"/>
<feComposite in2="hardAlpha" operator="out"/>
<feColorMatrix type="matrix" values="0 0 0 0 0 0 0 0 0 0 0 0 0 0 0 0 0 0 0.25 0"/>
<feBlend mode="normal" in2="BackgroundImageFix" result="effect1_dropShadow_3_343"/>
<feBlend mode="normal" in="SourceGraphic" in2="effect1_dropShadow_3_343" result="shape"/>
</filter>
<linearGradient id="paint0_linear_3_343" x1="124.888" y1="94.2383" x2="124.888" y2="137.85" gradientUnits="userSpaceOnUse">
<stop stop-color="#212121"/>
<stop offset="1" stop-color="#555555"/>
</linearGradient>
<linearGradient id="paint1_linear_3_343" x1="138.388" y1="118.713" x2="130.169" y2="174.116" gradientUnits="userSpaceOnUse">
<stop stop-color="#222222"/>
<stop offset="1" stop-color="#161616"/>
</linearGradient>
</defs>
</svg>
