<svg width="960" height="730" viewBox="0 0 960 730" fill="none" xmlns="http://www.w3.org/2000/svg">
<g clip-path="url(#clip0_0_87)">
<line x1="105.5" y1="3" x2="105.5" y2="727" stroke="#171717"/>
<line x1="180.5" y1="3" x2="180.5" y2="727" stroke="#171717"/>
<line x1="255.5" y1="3" x2="255.5" y2="727" stroke="#171717"/>
<line x1="330.5" y1="3" x2="330.5" y2="727" stroke="#171717"/>
<line x1="405.5" y1="3" x2="405.5" y2="727" stroke="#171717"/>
<line x1="480.5" y1="3" x2="480.5" y2="727" stroke="#171717"/>
<line x1="555.5" y1="3" x2="555.5" y2="727" stroke="#171717"/>
<line x1="630.5" y1="3" x2="630.5" y2="727" stroke="#171717"/>
<line x1="705.5" y1="3" x2="705.5" y2="727" stroke="#171717"/>
<line x1="780.5" y1="3" x2="780.5" y2="727" stroke="#171717"/>
<line x1="855.5" y1="3" x2="855.5" y2="727" stroke="#171717"/>
<line x1="82.9998" y1="61.5" x2="885" y2="61.5" stroke="#171717"/>
<line x1="82.9998" y1="121.5" x2="885" y2="121.5" stroke="#171717"/>
<line x1="82.9998" y1="181.5" x2="885" y2="181.5" stroke="#171717"/>
<line x1="82.9998" y1="241.5" x2="885" y2="241.5" stroke="#171717"/>
<line x1="82.9998" y1="301.5" x2="885" y2="301.5" stroke="#171717"/>
<line x1="82.9998" y1="361.5" x2="885" y2="361.5" stroke="#171717"/>
<line x1="82.9998" y1="421.5" x2="885" y2="421.5" stroke="#171717"/>
<line x1="82.9998" y1="481.5" x2="885" y2="481.5" stroke="#171717"/>
<line x1="82.9998" y1="541.5" x2="885" y2="541.5" stroke="#171717"/>
<line x1="82.9998" y1="601.5" x2="885" y2="601.5" stroke="#171717"/>
<line x1="82.9998" y1="661.5" x2="885" y2="661.5" stroke="#171717"/>
<g filter="url(#filter0_f_0_87)">
<path d="M1082 365C1082 703.551 807.551 978 469 978C130.449 978 -144 703.551 -144 365C-144 26.4494 130.449 -248 469 -248C807.551 -248 1082 26.4494 1082 365ZM145.384 365C145.384 543.728 290.272 688.616 469 688.616C647.728 688.616 792.616 543.728 792.616 365C792.616 186.272 647.728 41.3843 469 41.3843C290.272 41.3843 145.384 186.272 145.384 365Z" fill="#121212"/>
</g>
<g filter="url(#filter1_d_0_87)">
<g clip-path="url(#clip1_0_87)">
<path d="M261.189 277.409C260.747 274.078 263.089 271.018 266.421 270.576L498.677 239.748C502.009 239.305 505.068 241.648 505.51 244.979L529.749 427.591C530.192 430.922 527.849 433.982 524.517 434.424L292.261 465.252C288.929 465.695 285.87 463.352 285.428 460.02L261.189 277.409Z" fill="#2F2F2F"/>
<path d="M273.746 280.876L275.356 280.662L280.217 290.044L278.912 290.217L277.555 287.545L273.419 288.094L272.806 291.028L271.501 291.201L273.746 280.876ZM276.998 286.432L274.69 281.81L273.667 286.874L276.998 286.432ZM285.304 284.398C285.169 283.945 284.907 283.603 284.518 283.372C284.139 283.14 283.723 283.054 283.27 283.114C282.594 283.204 282.099 283.515 281.783 284.046C281.468 284.577 281.367 285.273 281.481 286.134C281.595 286.994 281.874 287.64 282.317 288.071C282.761 288.502 283.32 288.672 283.995 288.582C284.467 288.52 284.859 288.317 285.171 287.974C285.484 287.632 285.647 287.196 285.662 286.667L286.908 286.586C286.906 287.142 286.785 287.643 286.542 288.089C286.3 288.535 285.967 288.9 285.544 289.182C285.128 289.454 284.661 289.624 284.143 289.693C283.467 289.782 282.854 289.704 282.304 289.457C281.753 289.21 281.3 288.813 280.945 288.267C280.59 287.721 280.362 287.064 280.26 286.296C280.158 285.528 280.207 284.834 280.407 284.214C280.608 283.595 280.941 283.094 281.408 282.712C281.876 282.33 282.447 282.094 283.122 282.004C283.622 281.938 284.108 281.982 284.58 282.135C285.051 282.28 285.456 282.528 285.794 282.878C286.142 283.227 286.382 283.652 286.514 284.153L285.304 284.398ZM292.753 283.409C292.618 282.956 292.356 282.615 291.968 282.384C291.588 282.152 291.172 282.066 290.719 282.126C290.043 282.215 289.548 282.526 289.232 283.057C288.917 283.589 288.816 284.285 288.931 285.145C289.045 286.006 289.323 286.651 289.767 287.082C290.21 287.513 290.769 287.683 291.445 287.594C291.916 287.531 292.308 287.328 292.621 286.986C292.933 286.643 293.096 286.207 293.111 285.678L294.357 285.597C294.356 286.153 294.234 286.654 293.992 287.1C293.75 287.547 293.417 287.911 292.993 288.193C292.577 288.465 292.11 288.635 291.592 288.704C290.916 288.794 290.303 288.715 289.753 288.468C289.202 288.221 288.749 287.824 288.395 287.278C288.04 286.732 287.811 286.075 287.709 285.307C287.607 284.539 287.656 283.846 287.857 283.226C288.057 282.606 288.391 282.105 288.858 281.723C289.325 281.341 289.896 281.105 290.571 281.015C291.071 280.949 291.557 280.993 292.029 281.147C292.501 281.291 292.905 281.539 293.244 281.889C293.591 282.239 293.831 282.664 293.964 283.164L292.753 283.409ZM300.618 287.337L300.377 285.519L300.536 285.653C300.488 286.281 300.271 286.775 299.886 287.137C299.501 287.499 299.017 287.719 298.434 287.796C297.647 287.9 297.007 287.722 296.513 287.26C296.026 286.788 295.729 286.145 295.621 285.331L294.993 280.598L296.159 280.443L296.741 284.829C296.834 285.532 297.024 286.044 297.312 286.363C297.608 286.682 298.02 286.806 298.547 286.736C299.13 286.658 299.569 286.417 299.863 286.01C300.157 285.595 300.258 285.049 300.169 284.374L299.587 279.988L300.752 279.834L301.729 287.189L300.618 287.337ZM303.794 279.43L304.106 281.352L303.98 281.255C303.989 280.614 304.118 280.131 304.367 279.806C304.624 279.471 305.03 279.266 305.585 279.192L306.306 279.097L306.443 280.124L305.721 280.219C305.351 280.269 305.051 280.384 304.821 280.565C304.6 280.745 304.448 280.986 304.366 281.289C304.284 281.592 304.271 281.956 304.327 282.382L304.909 286.767L303.744 286.922L302.767 279.566L303.794 279.43ZM307.542 281.136C307.595 280.404 307.863 279.794 308.344 279.306C308.824 278.81 309.457 278.509 310.244 278.405C311.188 278.279 311.95 278.451 312.53 278.92C313.119 279.388 313.479 280.113 313.609 281.093L314.001 284.049C314.022 284.207 314.074 284.317 314.158 284.382C314.242 284.446 314.358 284.468 314.506 284.448L314.811 284.408L314.948 285.435L314.448 285.501L314.268 285.525C313.894 285.546 313.585 285.489 313.341 285.352C313.095 285.205 312.947 284.938 312.895 284.549C312.769 284.943 312.518 285.291 312.144 285.595C311.78 285.898 311.324 286.085 310.779 286.158C310.02 286.258 309.361 286.153 308.802 285.841C308.252 285.528 307.934 285.052 307.85 284.414C307.786 283.933 307.846 283.534 308.03 283.218C308.214 282.901 308.49 282.643 308.859 282.444C309.228 282.244 309.719 282.043 310.332 281.839L312.427 281.123C312.335 280.504 312.121 280.062 311.784 279.796C311.448 279.53 310.983 279.436 310.391 279.515C309.929 279.576 309.56 279.743 309.285 280.015C309.01 280.277 308.844 280.629 308.79 281.069L307.542 281.136ZM309.071 284.252C309.113 284.566 309.281 284.808 309.577 284.975C309.871 285.134 310.277 285.179 310.795 285.11C311.201 285.047 311.553 284.901 311.853 284.673C312.151 284.436 312.367 284.116 312.502 283.712C312.644 283.297 312.679 282.813 312.605 282.257L312.592 282.16L310.898 282.696C310.816 282.716 310.735 282.741 310.654 282.771C310.247 282.9 309.933 283.017 309.712 283.122C309.489 283.217 309.315 283.358 309.189 283.544C309.071 283.72 309.032 283.956 309.071 284.252ZM320.301 279.753C320.165 279.3 319.903 278.959 319.515 278.728C319.136 278.496 318.72 278.41 318.266 278.47C317.591 278.559 317.095 278.87 316.78 279.401C316.464 279.933 316.364 280.629 316.478 281.489C316.592 282.35 316.871 282.995 317.314 283.426C317.757 283.857 318.316 284.027 318.992 283.938C319.464 283.875 319.856 283.672 320.168 283.33C320.48 282.987 320.644 282.551 320.658 282.022L321.905 281.941C321.903 282.497 321.781 282.998 321.539 283.444C321.297 283.891 320.964 284.255 320.54 284.537C320.124 284.809 319.657 284.979 319.139 285.048C318.464 285.138 317.851 285.059 317.3 284.812C316.75 284.565 316.297 284.168 315.942 283.622C315.587 283.076 315.359 282.419 315.257 281.651C315.155 280.883 315.204 280.19 315.404 279.57C315.604 278.95 315.938 278.449 316.405 278.067C316.872 277.685 317.443 277.449 318.119 277.359C318.618 277.293 319.104 277.337 319.577 277.491C320.048 277.635 320.453 277.883 320.791 278.233C321.139 278.583 321.379 279.008 321.511 279.508L320.301 279.753ZM322.768 276.912L325.785 282.726L327.125 276.334L328.36 276.17L326.476 284.851C326.39 285.267 326.225 285.586 325.982 285.806C325.738 286.027 325.408 286.165 324.991 286.22L324.034 286.347L323.898 285.32L324.744 285.208C324.92 285.185 325.058 285.124 325.158 285.026C325.259 284.937 325.334 284.795 325.384 284.601L325.557 283.886L325.169 283.937L321.518 277.078L322.768 276.912Z" fill="white"/>
<path d="M280.635 309.813L281.024 312.738L280.669 312.785L280.33 310.231L280.313 310.234L279.662 310.802L279.614 310.443L280.281 309.86L280.635 309.813ZM281.946 312.639C281.876 312.648 281.812 312.631 281.755 312.587C281.698 312.543 281.665 312.486 281.655 312.416C281.646 312.345 281.663 312.281 281.707 312.224C281.751 312.167 281.808 312.134 281.878 312.124C281.949 312.115 282.012 312.132 282.07 312.176C282.127 312.22 282.16 312.277 282.169 312.347C282.176 312.394 282.169 312.438 282.151 312.481C282.133 312.523 282.106 312.558 282.07 312.587C282.035 312.615 281.994 312.632 281.946 312.639ZM283.657 312.429C283.442 312.458 283.251 312.423 283.084 312.326C282.917 312.228 282.778 312.073 282.668 311.86C282.559 311.646 282.483 311.38 282.44 311.062C282.399 310.745 282.403 310.47 282.453 310.236C282.504 310 282.597 309.814 282.733 309.675C282.87 309.536 283.045 309.452 283.258 309.424C283.471 309.396 283.661 309.431 283.829 309.53C283.997 309.628 284.136 309.784 284.245 309.998C284.356 310.211 284.432 310.476 284.474 310.792C284.516 311.11 284.512 311.386 284.462 311.622C284.412 311.856 284.319 312.042 284.183 312.18C284.047 312.318 283.872 312.4 283.657 312.429ZM283.615 312.115C283.828 312.087 283.98 311.962 284.071 311.74C284.162 311.519 284.182 311.218 284.131 310.837C284.098 310.584 284.042 310.372 283.964 310.201C283.887 310.03 283.792 309.905 283.679 309.825C283.566 309.745 283.44 309.714 283.299 309.733C283.087 309.761 282.936 309.887 282.845 310.111C282.753 310.335 282.733 310.636 282.783 311.016C282.817 311.269 282.872 311.481 282.949 311.651C283.026 311.821 283.12 311.946 283.232 312.025C283.346 312.104 283.473 312.134 283.615 312.115Z" fill="white"/>
<line x1="287.56" y1="310.357" x2="494" y2="282.955" stroke="#353535" stroke-width="0.338086" stroke-linecap="round"/>
<path d="M284.12 341.937C283.905 341.965 283.714 341.931 283.547 341.834C283.38 341.736 283.242 341.58 283.132 341.367C283.022 341.153 282.946 340.887 282.904 340.569C282.862 340.253 282.866 339.978 282.916 339.743C282.968 339.508 283.061 339.321 283.197 339.183C283.333 339.044 283.508 338.96 283.721 338.932C283.935 338.903 284.125 338.939 284.292 339.038C284.46 339.135 284.599 339.291 284.709 339.506C284.819 339.719 284.896 339.983 284.938 340.299C284.98 340.617 284.976 340.894 284.926 341.129C284.876 341.364 284.783 341.55 284.647 341.688C284.511 341.825 284.335 341.908 284.12 341.937ZM284.079 341.622C284.292 341.594 284.444 341.469 284.535 341.248C284.625 341.027 284.646 340.726 284.595 340.345C284.561 340.091 284.506 339.879 284.428 339.709C284.351 339.538 284.256 339.412 284.142 339.332C284.03 339.252 283.903 339.222 283.762 339.24C283.551 339.268 283.4 339.394 283.308 339.619C283.217 339.842 283.196 340.144 283.247 340.524C283.28 340.777 283.336 340.989 283.412 341.159C283.489 341.329 283.584 341.453 283.696 341.532C283.809 341.611 283.937 341.641 284.079 341.622ZM285.827 341.693C285.756 341.702 285.693 341.685 285.635 341.641C285.578 341.597 285.545 341.54 285.536 341.47C285.526 341.399 285.544 341.335 285.587 341.278C285.631 341.221 285.688 341.188 285.759 341.179C285.829 341.169 285.893 341.186 285.95 341.23C286.007 341.274 286.04 341.331 286.05 341.401C286.056 341.448 286.05 341.493 286.031 341.535C286.013 341.577 285.987 341.612 285.951 341.641C285.916 341.669 285.874 341.686 285.827 341.693ZM287.532 341.484C287.336 341.51 287.158 341.498 286.998 341.449C286.839 341.398 286.71 341.317 286.61 341.205C286.51 341.092 286.449 340.957 286.429 340.799C286.412 340.675 286.421 340.558 286.457 340.446C286.492 340.334 286.548 340.237 286.624 340.155C286.702 340.072 286.792 340.014 286.896 339.981L286.894 339.964C286.749 339.946 286.628 339.883 286.529 339.773C286.43 339.662 286.37 339.529 286.351 339.373C286.33 339.225 286.35 339.087 286.411 338.96C286.471 338.833 286.564 338.726 286.688 338.641C286.813 338.556 286.962 338.502 287.133 338.479C287.302 338.456 287.458 338.47 287.601 338.52C287.743 338.57 287.86 338.648 287.952 338.755C288.044 338.862 288.101 338.99 288.122 339.138C288.141 339.294 288.117 339.438 288.05 339.571C287.983 339.703 287.883 339.796 287.751 339.85L287.753 339.867C287.862 339.872 287.963 339.905 288.057 339.965C288.151 340.024 288.23 340.103 288.295 340.202C288.359 340.3 288.4 340.411 288.417 340.535C288.437 340.693 288.413 340.84 288.345 340.975C288.278 341.109 288.174 341.221 288.034 341.311C287.894 341.4 287.727 341.458 287.532 341.484ZM287.49 341.17C287.623 341.152 287.734 341.115 287.824 341.06C287.915 341.004 287.981 340.934 288.023 340.849C288.065 340.764 288.08 340.669 288.067 340.564C288.051 340.454 288.01 340.36 287.942 340.283C287.875 340.205 287.789 340.149 287.686 340.113C287.583 340.077 287.47 340.068 287.346 340.084C287.221 340.101 287.113 340.14 287.022 340.201C286.931 340.263 286.863 340.34 286.818 340.432C286.774 340.524 286.76 340.625 286.776 340.735C286.789 340.84 286.826 340.928 286.888 341C286.95 341.071 287.033 341.121 287.136 341.151C287.239 341.181 287.357 341.187 287.49 341.17ZM287.306 339.781C287.411 339.767 287.501 339.734 287.576 339.682C287.652 339.629 287.709 339.562 287.746 339.48C287.782 339.399 287.794 339.308 287.782 339.207C287.768 339.108 287.733 339.025 287.678 338.957C287.622 338.889 287.551 338.84 287.465 338.811C287.379 338.781 287.282 338.773 287.174 338.787C287.064 338.802 286.971 338.835 286.895 338.887C286.818 338.938 286.763 339.003 286.728 339.083C286.693 339.163 286.682 339.252 286.696 339.351C286.709 339.452 286.743 339.537 286.799 339.606C286.855 339.675 286.927 339.725 287.015 339.756C287.102 339.787 287.199 339.796 287.306 339.781Z" fill="white"/>
<line x1="291.417" y1="339.414" x2="497.856" y2="312.013" stroke="#353535" stroke-width="0.338086" stroke-linecap="round"/>
<path d="M287.846 370.159C287.631 370.187 287.44 370.153 287.273 370.056C287.106 369.958 286.968 369.802 286.858 369.589C286.748 369.375 286.672 369.109 286.63 368.791C286.588 368.475 286.592 368.2 286.643 367.965C286.694 367.73 286.787 367.543 286.923 367.405C287.059 367.266 287.234 367.182 287.447 367.154C287.661 367.125 287.851 367.161 288.018 367.26C288.186 367.357 288.325 367.513 288.435 367.727C288.546 367.94 288.622 368.205 288.664 368.521C288.706 368.839 288.702 369.116 288.652 369.351C288.602 369.585 288.509 369.772 288.373 369.91C288.237 370.047 288.062 370.13 287.846 370.159ZM287.805 369.844C288.018 369.816 288.17 369.691 288.261 369.47C288.351 369.249 288.372 368.947 288.321 368.567C288.287 368.313 288.232 368.101 288.154 367.93C288.077 367.759 287.982 367.634 287.868 367.554C287.756 367.474 287.629 367.443 287.488 367.462C287.277 367.49 287.126 367.616 287.034 367.841C286.943 368.064 286.922 368.366 286.973 368.746C287.006 368.999 287.062 369.21 287.138 369.38C287.215 369.55 287.31 369.675 287.422 369.754C287.535 369.833 287.663 369.863 287.805 369.844ZM289.553 369.915C289.482 369.924 289.419 369.907 289.361 369.863C289.304 369.819 289.271 369.762 289.262 369.692C289.252 369.621 289.27 369.557 289.313 369.5C289.357 369.443 289.414 369.41 289.485 369.4C289.555 369.391 289.619 369.408 289.676 369.452C289.733 369.496 289.766 369.553 289.776 369.623C289.782 369.67 289.776 369.714 289.757 369.757C289.74 369.799 289.713 369.834 289.677 369.863C289.642 369.891 289.6 369.908 289.553 369.915ZM291.28 369.703C291.16 369.717 291.037 369.71 290.911 369.682C290.786 369.654 290.666 369.595 290.554 369.504C290.441 369.413 290.342 369.282 290.259 369.112C290.175 368.941 290.115 368.72 290.079 368.449C290.045 368.191 290.039 367.958 290.061 367.751C290.083 367.544 290.131 367.366 290.205 367.216C290.279 367.066 290.376 366.947 290.497 366.858C290.619 366.769 290.763 366.714 290.927 366.692C291.091 366.67 291.241 366.684 291.377 366.732C291.514 366.78 291.631 366.857 291.728 366.962C291.824 367.067 291.894 367.194 291.938 367.342L291.589 367.389C291.54 367.262 291.462 367.161 291.358 367.087C291.253 367.012 291.123 366.985 290.969 367.006C290.742 367.036 290.577 367.158 290.473 367.373C290.369 367.587 290.341 367.872 290.387 368.228L290.41 368.225C290.453 368.137 290.507 368.06 290.572 367.993C290.639 367.925 290.715 367.87 290.8 367.826C290.886 367.783 290.978 367.755 291.078 367.741C291.246 367.719 291.405 367.741 291.555 367.806C291.705 367.87 291.831 367.97 291.935 368.106C292.038 368.24 292.102 368.402 292.127 368.59C292.151 368.771 292.132 368.942 292.071 369.104C292.01 369.264 291.912 369.398 291.777 369.506C291.643 369.613 291.478 369.678 291.28 369.703ZM291.239 369.388C291.359 369.373 291.462 369.328 291.55 369.256C291.638 369.183 291.703 369.092 291.745 368.984C291.787 368.876 291.801 368.76 291.784 368.636C291.768 368.515 291.726 368.409 291.659 368.317C291.592 368.224 291.508 368.154 291.406 368.108C291.305 368.061 291.194 368.046 291.074 368.062C290.984 368.074 290.902 368.103 290.829 368.149C290.755 368.195 290.693 368.253 290.642 368.322C290.592 368.392 290.556 368.469 290.533 368.553C290.511 368.637 290.505 368.722 290.517 368.81C290.532 368.926 290.574 369.031 290.641 369.125C290.71 369.218 290.796 369.29 290.899 369.339C291.004 369.388 291.117 369.405 291.239 369.388Z" fill="white"/>
<line x1="295.162" y1="367.634" x2="501.602" y2="340.232" stroke="#353535" stroke-width="0.338086" stroke-linecap="round"/>
<path d="M291.419 398.401C291.204 398.429 291.013 398.395 290.846 398.298C290.679 398.2 290.541 398.045 290.431 397.831C290.321 397.617 290.245 397.351 290.203 397.033C290.161 396.717 290.165 396.442 290.215 396.208C290.266 395.972 290.36 395.785 290.496 395.647C290.632 395.508 290.807 395.424 291.02 395.396C291.234 395.368 291.424 395.403 291.591 395.502C291.759 395.6 291.898 395.756 292.008 395.97C292.118 396.183 292.195 396.447 292.237 396.763C292.279 397.081 292.275 397.358 292.225 397.593C292.174 397.828 292.081 398.014 291.946 398.152C291.81 398.289 291.634 398.372 291.419 398.401ZM291.377 398.087C291.591 398.058 291.743 397.933 291.834 397.712C291.924 397.491 291.944 397.19 291.894 396.809C291.86 396.556 291.804 396.344 291.727 396.173C291.65 396.002 291.555 395.876 291.441 395.796C291.329 395.716 291.202 395.686 291.061 395.704C290.85 395.732 290.699 395.859 290.607 396.083C290.516 396.306 290.495 396.608 290.546 396.988C290.579 397.241 290.635 397.453 290.711 397.623C290.788 397.793 290.883 397.917 290.995 397.996C291.108 398.075 291.236 398.105 291.377 398.087ZM293.126 398.157C293.055 398.166 292.991 398.149 292.934 398.105C292.877 398.061 292.844 398.004 292.835 397.934C292.825 397.863 292.842 397.8 292.886 397.742C292.93 397.685 292.987 397.652 293.058 397.643C293.128 397.633 293.192 397.65 293.249 397.694C293.306 397.738 293.339 397.795 293.349 397.866C293.355 397.912 293.349 397.957 293.33 397.999C293.312 398.041 293.286 398.076 293.25 398.105C293.215 398.133 293.173 398.15 293.126 398.157ZM293.831 397.43L293.792 397.138L294.807 394.934L295.019 394.906L295.079 395.357L294.936 395.376L294.169 397.042L294.172 397.065L295.903 396.835L295.944 397.149L293.831 397.43ZM295.287 397.847L295.196 397.158L295.178 397.023L294.899 394.922L295.236 394.877L295.624 397.802L295.287 397.847Z" fill="white"/>
<line x1="298.908" y1="395.853" x2="505.348" y2="368.451" stroke="#353535" stroke-width="0.338086" stroke-linecap="round"/>
<path d="M295.31 426.601C295.095 426.629 294.904 426.595 294.737 426.498C294.57 426.4 294.432 426.245 294.322 426.031C294.212 425.817 294.136 425.551 294.094 425.233C294.052 424.917 294.056 424.642 294.106 424.408C294.157 424.172 294.251 423.985 294.387 423.847C294.523 423.708 294.698 423.624 294.911 423.596C295.125 423.568 295.315 423.603 295.482 423.702C295.65 423.8 295.789 423.956 295.899 424.17C296.009 424.383 296.086 424.647 296.128 424.963C296.17 425.281 296.166 425.558 296.116 425.793C296.065 426.028 295.972 426.214 295.837 426.352C295.701 426.489 295.525 426.572 295.31 426.601ZM295.268 426.287C295.482 426.258 295.634 426.133 295.725 425.912C295.815 425.691 295.835 425.39 295.785 425.009C295.751 424.756 295.695 424.544 295.618 424.373C295.541 424.202 295.446 424.076 295.332 423.996C295.22 423.916 295.093 423.886 294.952 423.904C294.741 423.932 294.59 424.059 294.498 424.283C294.407 424.506 294.386 424.808 294.437 425.188C294.47 425.441 294.526 425.653 294.602 425.823C294.679 425.993 294.774 426.117 294.886 426.196C294.999 426.275 295.127 426.305 295.268 426.287ZM297.017 426.357C296.946 426.366 296.882 426.349 296.825 426.305C296.768 426.261 296.735 426.204 296.726 426.134C296.716 426.063 296.733 426 296.777 425.942C296.821 425.885 296.878 425.852 296.948 425.843C297.019 425.833 297.083 425.851 297.14 425.894C297.197 425.938 297.23 425.995 297.24 426.066C297.246 426.112 297.24 426.157 297.221 426.199C297.203 426.241 297.177 426.276 297.141 426.305C297.106 426.333 297.064 426.35 297.017 426.357ZM297.87 426.22L297.836 425.963L298.661 424.778C298.758 424.639 298.837 424.519 298.898 424.418C298.959 424.316 299.002 424.222 299.026 424.137C299.052 424.05 299.058 423.962 299.046 423.872C299.033 423.77 298.996 423.684 298.937 423.615C298.878 423.547 298.804 423.497 298.714 423.468C298.624 423.438 298.526 423.43 298.42 423.444C298.308 423.459 298.213 423.495 298.135 423.553C298.058 423.61 298.002 423.683 297.968 423.772C297.934 423.86 297.925 423.96 297.939 424.072L297.602 424.117C297.58 423.945 297.599 423.789 297.661 423.649C297.723 423.509 297.817 423.394 297.943 423.304C298.071 423.213 298.22 423.157 298.39 423.134C298.562 423.111 298.718 423.127 298.86 423.182C299.002 423.237 299.119 423.321 299.211 423.434C299.302 423.546 299.358 423.678 299.378 423.829C299.392 423.936 299.387 424.044 299.361 424.152C299.337 424.259 299.285 424.381 299.207 424.52C299.129 424.657 299.018 424.827 298.874 425.029L298.311 425.819L298.314 425.842L299.673 425.661L299.715 425.975L297.87 426.22Z" fill="white"/>
<line x1="302.654" y1="424.072" x2="509.093" y2="396.67" stroke="#353535" stroke-width="0.338086" stroke-linecap="round"/>
<path d="M302.496 454.363C302.281 454.392 302.09 454.358 301.923 454.261C301.756 454.163 301.618 454.007 301.508 453.794C301.398 453.58 301.322 453.314 301.28 452.996C301.238 452.68 301.242 452.405 301.293 452.17C301.344 451.935 301.437 451.748 301.573 451.61C301.709 451.471 301.884 451.387 302.098 451.358C302.311 451.33 302.501 451.365 302.668 451.464C302.836 451.562 302.975 451.718 303.085 451.932C303.196 452.145 303.272 452.41 303.314 452.726C303.356 453.044 303.352 453.321 303.302 453.556C303.252 453.79 303.159 453.977 303.023 454.115C302.887 454.252 302.712 454.335 302.496 454.363ZM302.455 454.049C302.668 454.021 302.82 453.896 302.911 453.675C303.001 453.453 303.022 453.152 302.971 452.771C302.937 452.518 302.882 452.306 302.804 452.135C302.727 451.964 302.632 451.839 302.518 451.759C302.406 451.679 302.279 451.648 302.138 451.667C301.927 451.695 301.776 451.821 301.684 452.046C301.593 452.269 301.572 452.571 301.623 452.95C301.656 453.204 301.712 453.415 301.789 453.585C301.865 453.755 301.96 453.88 302.072 453.959C302.185 454.038 302.313 454.068 302.455 454.049Z" fill="white"/>
<line x1="306.399" y1="452.291" x2="512.839" y2="424.89" stroke="#353535" stroke-width="0.338086" stroke-linecap="round"/>
<g style="mix-blend-mode:exclusion">
<g style="mix-blend-mode:hard-light" opacity="0.1">
<path d="M507.499 357.804L512.474 359.123L521.081 423.967L312.955 451.593L301.211 363.114L306.062 365.759L310.778 365.133L313.391 367.865L316.339 367.474C317.192 367.874 318.957 368.666 319.193 368.634C319.429 368.603 321.042 369.005 321.819 369.209L328.278 369.276L332.123 369.997L337.859 368.004L340.833 366.686L345.536 368.217L350.106 367.61L353.657 364.983C355.091 364.485 358.017 363.481 358.253 363.45C358.489 363.418 360.335 362.558 361.228 362.131L363.586 361.818L369.308 361.982L374.293 362.244L376.785 364.069L383.538 364.096L387.049 364.554L391.082 365.558L395.249 368.7L396.87 368.485L401.172 366.99L405.085 363.7L408.569 361.698L410.78 361.404L414.492 359.988L420.066 360.172L425.225 359.487L430.585 360.315L435.985 361.446L440.058 362.752L444.305 363.112L449.786 361.461L454.328 361.782L458.871 362.103L462.878 360.647L468.76 362.022L473.316 360.185L478.193 360.77L482.763 360.163L487.747 360.425L492.759 359.76L497.891 360.003L502.514 357.542L507.499 357.804Z" fill="url(#paint0_linear_0_87)"/>
</g>
<path d="M512.468 359.083L507.494 357.767L502.509 357.506L497.886 359.964L492.754 359.723L487.742 360.388L482.758 360.128L478.189 360.734L473.311 360.152L468.755 361.986L462.873 360.615L458.866 362.069L454.324 361.75L449.782 361.431L444.301 363.08L440.054 362.722L435.981 361.418L430.581 360.291L425.222 359.465L420.063 360.15L414.489 359.968L410.777 361.383L408.566 361.676L405.082 363.675L401.168 366.961L396.866 368.455L395.245 368.67L391.079 365.534L387.046 364.533L383.536 364.076L376.782 364.051L374.291 362.23L369.306 361.969L363.585 361.806L361.227 362.119C360.333 362.545 358.487 363.405 358.251 363.436C358.016 363.468 355.089 364.471 353.655 364.969L350.103 367.592L345.534 368.198L340.831 366.671L337.856 367.988L332.121 369.979L328.275 369.26L321.817 369.195C321.04 368.99 319.427 368.59 319.191 368.621C318.955 368.652 317.19 367.862 316.337 367.463L313.389 367.854L310.778 365.127L306.061 365.753L301.211 363.114" stroke="#AFB2FF" stroke-width="0.676171" stroke-linecap="round" stroke-linejoin="round"/>
</g>
</g>
<path d="M261.357 277.387C260.927 274.148 263.204 271.174 266.443 270.744L498.699 239.915C501.939 239.485 504.913 241.763 505.343 245.002L529.582 427.613C530.012 430.852 527.734 433.826 524.495 434.256L292.239 465.085C289 465.515 286.025 463.237 285.595 459.998L261.357 277.387Z" stroke="#3F3F3F" stroke-width="0.338086"/>
</g>
<g filter="url(#filter2_d_0_87)">
<g clip-path="url(#clip2_0_87)">
<rect x="468.858" y="272.947" width="246.464" height="75.2281" rx="6.08554" transform="rotate(15 468.858 272.947)" fill="#2F2F2F"/>
<path d="M477.549 286.844L479.118 287.265L480.007 297.793L478.736 297.453L478.508 294.464L474.478 293.384L472.786 295.858L471.515 295.518L477.549 286.844ZM478.42 293.223L478.062 288.069L475.174 292.353L478.42 293.223ZM489.064 296.626C488.871 297.347 488.553 297.938 488.11 298.399C487.677 298.863 487.146 299.165 486.519 299.306C485.901 299.45 485.227 299.424 484.497 299.228C483.757 299.03 483.151 298.713 482.679 298.277C482.215 297.844 481.907 297.317 481.754 296.696C481.611 296.078 481.636 295.408 481.829 294.687L483.507 288.426L484.67 288.738L482.992 294.999C482.784 295.774 482.835 296.43 483.146 296.968C483.465 297.507 484.017 297.882 484.801 298.092C485.576 298.3 486.233 298.249 486.77 297.939C487.316 297.631 487.693 297.089 487.901 296.314L489.578 290.053L490.741 290.365L489.064 296.626ZM498.742 299.422C498.284 300.41 497.639 301.122 496.808 301.556C495.988 301.984 495.037 302.053 493.955 301.763C493.063 301.524 492.347 301.095 491.807 300.477C491.267 299.859 490.927 299.125 490.788 298.276C490.648 297.427 490.704 296.534 490.955 295.596C491.209 294.649 491.608 293.843 492.154 293.178C492.702 292.503 493.359 292.032 494.127 291.764C494.903 291.499 495.742 291.487 496.644 291.729C497.645 291.997 498.398 292.503 498.904 293.247C499.41 293.992 499.64 294.88 499.596 295.911L498.344 295.663C498.371 294.945 498.208 294.346 497.854 293.865C497.512 293.377 497.007 293.043 496.339 292.865C495.636 292.676 495.003 292.695 494.44 292.921C493.889 293.14 493.42 293.517 493.036 294.052C492.653 294.578 492.365 295.201 492.172 295.922C491.979 296.643 491.916 297.327 491.985 297.974C492.056 298.611 492.278 299.168 492.653 299.645C493.03 300.114 493.565 300.441 494.26 300.627C494.963 300.815 495.593 300.771 496.15 300.496C496.718 300.213 497.175 299.717 497.52 299.007L498.742 299.422ZM504.6 299.586L504.314 300.654L499.837 299.455L500.124 298.386L504.6 299.586ZM511.285 295.884C511.952 296.062 512.498 296.334 512.922 296.699C513.355 297.066 513.643 297.506 513.786 298.018C513.938 298.532 513.936 299.082 513.779 299.668C513.667 300.083 513.467 300.435 513.177 300.724C512.896 301.016 512.569 301.223 512.198 301.346C511.839 301.462 511.49 301.485 511.151 301.413L510.778 301.183C511.535 301.386 512.047 301.658 512.313 302C512.588 302.344 512.672 302.84 512.566 303.488L512.08 306.387L510.903 306.072L511.384 303.302C511.464 302.86 511.369 302.511 511.1 302.255C510.83 301.999 510.339 301.776 509.627 301.585L507.274 300.954L506.238 304.822L505.075 304.51L507.647 294.909L511.285 295.884ZM510.053 300.481C510.711 300.658 511.256 300.644 511.687 300.441C512.128 300.24 512.421 299.865 512.569 299.315C512.718 298.756 512.653 298.279 512.372 297.885C512.103 297.484 511.639 297.196 510.981 297.02L508.506 296.357L507.578 299.818L510.053 300.481ZM517.515 308.076C516.604 307.832 515.873 307.423 515.321 306.85C514.772 306.268 514.422 305.556 514.271 304.713C514.122 303.862 514.185 302.922 514.461 301.894C514.738 300.858 515.153 300.012 515.706 299.358C516.26 298.695 516.921 298.249 517.688 298.02C518.454 297.79 519.293 297.798 520.204 298.041C521.105 298.283 521.831 298.695 522.38 299.277C522.929 299.859 523.278 300.576 523.427 301.427C523.578 302.27 523.515 303.209 523.237 304.246C522.962 305.274 522.547 306.119 521.992 306.782C521.44 307.436 520.781 307.878 520.014 308.107C519.249 308.328 518.417 308.317 517.515 308.076ZM517.806 306.936C518.464 307.112 519.073 307.111 519.633 306.933C520.195 306.745 520.68 306.397 521.087 305.887C521.496 305.369 521.807 304.713 522.02 303.92C522.235 303.118 522.295 302.39 522.199 301.736C522.104 301.082 521.858 300.538 521.463 300.104C521.07 299.66 520.544 299.35 519.886 299.174C519.237 299 518.631 299.007 518.069 299.194C517.509 299.373 517.024 299.721 516.614 300.239C516.205 300.758 515.893 301.418 515.678 302.221C515.465 303.014 515.407 303.737 515.502 304.391C515.6 305.036 515.845 305.58 516.239 306.023C516.634 306.458 517.157 306.762 517.806 306.936ZM532.148 308.373C531.689 309.361 531.045 310.073 530.213 310.507C529.393 310.935 528.442 311.004 527.361 310.714C526.468 310.475 525.752 310.046 525.212 309.428C524.672 308.81 524.333 308.076 524.193 307.227C524.053 306.378 524.109 305.485 524.36 304.547C524.614 303.6 525.014 302.794 525.559 302.129C526.107 301.454 526.765 300.983 527.532 300.715C528.309 300.45 529.148 300.438 530.049 300.68C531.05 300.948 531.803 301.454 532.309 302.198C532.815 302.943 533.046 303.831 533.001 304.862L531.749 304.614C531.777 303.896 531.614 303.297 531.26 302.816C530.917 302.328 530.412 301.994 529.745 301.816C529.042 301.627 528.409 301.646 527.846 301.872C527.294 302.091 526.826 302.468 526.441 303.003C526.059 303.529 525.771 304.152 525.578 304.873C525.384 305.594 525.322 306.278 525.39 306.925C525.461 307.562 525.684 308.119 526.058 308.596C526.435 309.065 526.971 309.392 527.665 309.578C528.368 309.766 528.998 309.722 529.555 309.447C530.124 309.164 530.58 308.668 530.925 307.958L532.148 308.373Z" fill="white"/>
<path d="M467.586 336.224C466.437 335.916 465.511 335.342 464.808 334.502C464.12 333.665 463.689 332.622 463.516 331.372C463.361 330.113 463.488 328.72 463.897 327.192C464.307 325.664 464.894 324.393 465.658 323.38C466.439 322.358 467.337 321.656 468.352 321.276C469.381 320.899 470.47 320.865 471.619 321.173C472.782 321.485 473.708 322.059 474.397 322.896C475.099 323.736 475.528 324.786 475.684 326.045C475.853 327.308 475.731 328.71 475.318 330.252C474.908 331.78 474.315 333.048 473.537 334.057C472.776 335.057 471.882 335.745 470.853 336.121C469.838 336.501 468.749 336.536 467.586 336.224ZM468.043 334.52C468.868 334.741 469.631 334.707 470.332 334.416C471.036 334.112 471.654 333.567 472.183 332.782C472.726 331.999 473.162 330.993 473.492 329.762C473.825 328.518 473.952 327.422 473.873 326.473C473.811 325.514 473.549 324.734 473.087 324.132C472.629 323.516 471.988 323.098 471.163 322.877C470.338 322.656 469.573 322.697 468.868 323.001C468.181 323.295 467.564 323.84 467.017 324.636C466.488 325.422 466.056 326.437 465.723 327.681C465.393 328.911 465.261 329.999 465.327 330.944C465.406 331.893 465.668 332.674 466.113 333.286C466.575 333.888 467.218 334.299 468.043 334.52ZM477.503 336.164L476.91 338.375L474.74 337.793L475.332 335.582L477.503 336.164ZM481.356 329.261C481.631 328.233 482.089 327.392 482.728 326.737C483.367 326.082 484.129 325.648 485.012 325.436C485.895 325.223 486.83 325.249 487.817 325.513C488.48 325.691 489.081 325.99 489.621 326.41C490.164 326.816 490.624 327.345 491 327.997C491.372 328.662 491.563 329.466 491.57 330.411C491.592 331.358 491.449 332.407 491.141 333.557C490.492 335.977 489.516 337.861 488.213 339.208C486.924 340.558 485.312 340.974 483.379 340.456C482.324 340.173 481.47 339.654 480.817 338.9C480.164 338.145 479.794 337.227 479.707 336.146L481.591 336.498C481.69 337.047 481.934 337.518 482.321 337.911C482.722 338.309 483.227 338.589 483.835 338.752C484.606 338.958 485.332 338.899 486.013 338.574C486.698 338.236 487.311 337.654 487.851 336.828C488.408 335.991 488.875 334.928 489.249 333.637L489.573 333.81C488.978 334.622 488.262 335.184 487.425 335.496C486.605 335.798 485.728 335.824 484.795 335.574C483.849 335.32 483.066 334.886 482.448 334.271C481.848 333.646 481.446 332.901 481.243 332.035C481.058 331.159 481.095 330.234 481.356 329.261ZM483.182 329.75C483.011 330.386 482.986 330.995 483.105 331.577C483.241 332.15 483.501 332.64 483.885 333.047C484.286 333.445 484.784 333.723 485.379 333.882C486.028 334.056 486.646 334.077 487.232 333.944C487.822 333.798 488.326 333.513 488.744 333.088C489.179 332.654 489.482 332.119 489.652 331.484C489.84 330.838 489.867 330.222 489.734 329.636C489.605 329.036 489.329 328.527 488.904 328.109C488.484 327.678 487.956 327.377 487.32 327.206C486.698 327.04 486.104 327.04 485.537 327.207C484.974 327.36 484.48 327.663 484.055 328.114C483.647 328.556 483.356 329.101 483.182 329.75ZM493.906 332.102C494.28 331.245 494.783 330.532 495.414 329.962C496.049 329.379 496.784 328.988 497.619 328.792C498.471 328.586 499.364 328.607 500.297 328.857C501.163 329.089 501.891 329.48 502.483 330.03C503.092 330.57 503.509 331.204 503.735 331.931C503.974 332.662 503.99 333.412 503.784 334.183C503.606 334.846 503.279 335.418 502.802 335.899C502.329 336.366 501.75 336.769 501.065 337.107C500.397 337.436 499.591 337.741 498.645 338.024C498.1 338.168 497.454 338.386 496.709 338.679C495.977 338.976 495.302 339.331 494.684 339.746C494.069 340.146 493.695 340.568 493.562 341.01L501.514 343.141L501.057 344.845L490.935 342.133C491.265 340.902 491.776 339.916 492.468 339.173C493.173 338.435 493.922 337.882 494.716 337.515C495.51 337.148 496.53 336.776 497.776 336.4L498.462 336.192C499.415 335.882 500.2 335.52 500.819 335.106C501.437 334.692 501.817 334.221 501.958 333.694C502.081 333.234 502.07 332.789 501.924 332.359C501.792 331.932 501.544 331.561 501.179 331.246C500.814 330.931 500.368 330.703 499.841 330.561C498.975 330.329 498.181 330.399 497.458 330.771C496.736 331.142 496.149 331.79 495.699 332.713L493.906 332.102Z" fill="white"/>
</g>
<rect x="468.977" y="273.154" width="246.126" height="74.89" rx="5.9165" transform="rotate(15 468.977 273.154)" stroke="#3F3F3F" stroke-width="0.338086"/>
</g>
</g>
<defs>
<filter id="filter0_f_0_87" x="-258" y="-362" width="1454" height="1454" filterUnits="userSpaceOnUse" color-interpolation-filters="sRGB">
<feFlood flood-opacity="0" result="BackgroundImageFix"/>
<feBlend mode="normal" in="SourceGraphic" in2="BackgroundImageFix" result="shape"/>
<feGaussianBlur stdDeviation="57" result="effect1_foregroundBlur_0_87"/>
</filter>
<filter id="filter1_d_0_87" x="232.488" y="215.047" width="325.962" height="282.906" filterUnits="userSpaceOnUse" color-interpolation-filters="sRGB">
<feFlood flood-opacity="0" result="BackgroundImageFix"/>
<feColorMatrix in="SourceAlpha" type="matrix" values="0 0 0 0 0 0 0 0 0 0 0 0 0 0 0 0 0 0 127 0" result="hardAlpha"/>
<feMorphology radius="5" operator="dilate" in="SourceAlpha" result="effect1_dropShadow_0_87"/>
<feOffset dy="4"/>
<feGaussianBlur stdDeviation="11.45"/>
<feComposite in2="hardAlpha" operator="out"/>
<feColorMatrix type="matrix" values="0 0 0 0 0.276172 0 0 0 0 0.276172 0 0 0 0 0.276172 0 0 0 0.25 0"/>
<feBlend mode="normal" in2="BackgroundImageFix" result="effect1_dropShadow_0_87"/>
<feBlend mode="normal" in="SourceGraphic" in2="effect1_dropShadow_0_87" result="shape"/>
</filter>
<filter id="filter2_d_0_87" x="421.487" y="249.047" width="313.337" height="192.254" filterUnits="userSpaceOnUse" color-interpolation-filters="sRGB">
<feFlood flood-opacity="0" result="BackgroundImageFix"/>
<feColorMatrix in="SourceAlpha" type="matrix" values="0 0 0 0 0 0 0 0 0 0 0 0 0 0 0 0 0 0 127 0" result="hardAlpha"/>
<feMorphology radius="5" operator="dilate" in="SourceAlpha" result="effect1_dropShadow_0_87"/>
<feOffset dy="4"/>
<feGaussianBlur stdDeviation="11.45"/>
<feComposite in2="hardAlpha" operator="out"/>
<feColorMatrix type="matrix" values="0 0 0 0 0.276172 0 0 0 0 0.276172 0 0 0 0 0.276172 0 0 0 0.25 0"/>
<feBlend mode="normal" in2="BackgroundImageFix" result="effect1_dropShadow_0_87"/>
<feBlend mode="normal" in="SourceGraphic" in2="effect1_dropShadow_0_87" result="shape"/>
</filter>
<linearGradient id="paint0_linear_0_87" x1="409.553" y1="382.826" x2="409.71" y2="470.98" gradientUnits="userSpaceOnUse">
<stop offset="0.08" stop-color="#656AFF"/>
<stop offset="1" stop-color="#2B2B2B"/>
</linearGradient>
<clipPath id="clip0_0_87">
<rect width="960" height="730" fill="white"/>
</clipPath>
<clipPath id="clip1_0_87">
<path d="M261.189 277.409C260.747 274.078 263.089 271.018 266.421 270.576L498.677 239.748C502.009 239.305 505.068 241.648 505.51 244.979L529.749 427.591C530.192 430.922 527.849 433.982 524.517 434.424L292.261 465.252C288.929 465.695 285.87 463.352 285.428 460.02L261.189 277.409Z" fill="white"/>
</clipPath>
<clipPath id="clip2_0_87">
<rect x="468.858" y="272.947" width="246.464" height="75.2281" rx="6.08554" transform="rotate(15 468.858 272.947)" fill="white"/>
</clipPath>
</defs>
</svg>
