<svg width="400" height="400" viewBox="0 0 400 400" fill="none" xmlns="http://www.w3.org/2000/svg">
<circle cx="200" cy="200" r="75" fill="#3499CD"/>
<path fill-rule="evenodd" clip-rule="evenodd" d="M370 65.5C370 84.5538 354.554 100 335.5 100C316.446 100 301 84.5538 301 65.5C301 46.4462 316.446 31 335.5 31C354.554 31 370 46.4462 370 65.5ZM108 346C108 374.719 84.7188 398 56 398C27.2812 398 4 374.719 4 346C4 317.281 27.2812 294 56 294C84.7188 294 108 317.281 108 346ZM309 326C318.389 326 326 318.389 326 309C326 299.611 318.389 292 309 292C299.611 292 292 299.611 292 309C292 318.389 299.611 326 309 326Z" fill="#F89A36"/>
</svg>
