<svg width="16" height="16" viewBox="0 0 16 16" fill="none" xmlns="http://www.w3.org/2000/svg">
<path d="M2.66667,2c0.36818,0 0.66666,0.29848 0.66666,0.66667v7.0572l1.69526,-1.69527c0.72059,-0.7206 1.88888,-0.7206 2.60948,0c0.19986,0.19987 0.524,0.19987 0.72386,0l1.5572,-1.55719c0.78107,-0.78106 2.04737,-0.78105 2.82837,0l0.3906,0.39052c0.2603,0.26034 0.2603,0.68247 0,0.9428c-0.2604,0.26034 -0.6825,0.26034 -0.9428,0l-0.3906,-0.39053c-0.2603,-0.26033 -0.6824,-0.26033 -0.9428,0l-1.55717,1.5572c-0.7206,0.7206 -1.88886,0.7206 -2.60946,0c-0.1999,-0.19987 -0.52398,-0.19987 -0.72386,0l-2.63808,2.6381v0.3905c0,0.3682 0.29848,0.6667 0.66667,0.6667h9.3333c0.3682,0 0.6667,0.2984 0.6667,0.6666c0,0.3682 -0.2985,0.6667 -0.6667,0.6667h-9.3333c-1.10457,0 -2,-0.8954 -2,-2v-9.33333c0,-0.36819 0.29848,-0.66667 0.66667,-0.66667z" fill="black"/>
</svg>
