<svg width="16" height="16" viewBox="0 0 16 16" fill="none" xmlns="http://www.w3.org/2000/svg">
<path d="M6.05888,2.96297c0.2608,0 0.47222,0.21142 0.47222,0.47222v9.12961c0,0.2608 -0.21142,0.4722 -0.47222,0.4722c-0.2608,0 -0.47222,-0.2114 -0.47222,-0.4722v-9.12961c0,-0.2608 0.21142,-0.47222 0.47222,-0.47222zM13.8235,4.85186c0.2608,0 0.4722,0.21142 0.4722,0.47222v7.24072c0,0.2608 -0.2114,0.4722 -0.4722,0.4722c-0.2608,0 -0.4723,-0.2114 -0.4723,-0.4722v-7.24072c0,-0.2608 0.2115,-0.47222 0.4723,-0.47222zM2.17657,6.74074c0.2608,0 0.47222,0.21143 0.47222,0.47223v5.35183c0,0.2608 -0.21142,0.4722 -0.47222,0.4722c-0.2608,0 -0.47222,-0.2114 -0.47222,-0.4722v-5.35183c0,-0.2608 0.21142,-0.47223 0.47222,-0.47223zM9.94116,8.62963c0.26084,0 0.47224,0.21142 0.47224,0.47223v3.46294c0,0.2608 -0.2114,0.4722 -0.47224,0.4722c-0.2608,0 -0.47222,-0.2114 -0.47222,-0.4722v-3.46294c0,-0.26081 0.21142,-0.47223 0.47222,-0.47223z" fill="currentColor"/>
</svg>
