<svg width="16" height="16" viewBox="0 0 16 16" fill="none" xmlns="http://www.w3.org/2000/svg">
<path d="M3.55545,3.55555v5.55556h5.55555v-5.55556zM12.7221,5.77778c0.4602,0 0.8333,0.37306 0.8333,0.83333v6.11109c0,0.4602 -0.3731,0.8334 -0.8333,0.8334h-6.1111c-0.46026,0 -0.83333,-0.3732 -0.83333,-0.8334v-2.5h-2.5c-0.46027,0 -0.83333,-0.37313 -0.83333,-0.83331v-6.11111c0,-0.46024 0.37309,-0.83334 0.83333,-0.83334h6.11111c0.46018,0 0.83332,0.37307 0.83332,0.83334v2.5zM10.2221,6.88889v2.5c0,0.46021 -0.37311,0.83331 -0.83332,0.83331h-2.5v2.2222h5.55552v-5.55551z" fill="currentColor"/>
</svg>
