<svg width="16" height="16" viewBox="0 0 16 16" fill="none" xmlns="http://www.w3.org/2000/svg">
<path d="M0.5,2.75c0,-0.41421 0.33579,-0.75 0.75,-0.75h1.5c0.41421,0 0.75,0.33579 0.75,0.75c0,0.41421 -0.33579,0.75 -0.75,0.75h-1.5c-0.41421,0 -0.75,-0.33579 -0.75,-0.75zM6.5,2.75c0,-0.41421 0.33579,-0.75 0.75,-0.75h1.5c0.41421,0 0.75,0.33579 0.75,0.75c0,0.41421 -0.33579,0.75 -0.75,0.75h-1.5c-0.41421,0 -0.75,-0.33579 -0.75,-0.75zM12.5,2.75c0,-0.41421 0.3358,-0.75 0.75,-0.75h1.5c0.4142,0 0.75,0.33579 0.75,0.75c0,0.41421 -0.3358,0.75 -0.75,0.75h-1.5c-0.4142,0 -0.75,-0.33579 -0.75,-0.75zM0.5,8c0,-0.41421 0.33579,-0.75 0.75,-0.75h13.5c0.4142,0 0.75,0.33579 0.75,0.75c0,0.41421 -0.3358,0.75 -0.75,0.75h-13.5c-0.41421,0 -0.75,-0.33579 -0.75,-0.75zM0.5,13.25c0,-0.4142 0.33579,-0.75 0.75,-0.75h1.5c0.41421,0 0.75,0.3358 0.75,0.75c0,0.4142 -0.33579,0.75 -0.75,0.75h-1.5c-0.41421,0 -0.75,-0.3358 -0.75,-0.75zM6.5,13.25c0,-0.4142 0.33579,-0.75 0.75,-0.75h1.5c0.41421,0 0.75,0.3358 0.75,0.75c0,0.4142 -0.33579,0.75 -0.75,0.75h-1.5c-0.41421,0 -0.75,-0.3358 -0.75,-0.75zM12.5,13.25c0,-0.4142 0.3358,-0.75 0.75,-0.75h1.5c0.4142,0 0.75,0.3358 0.75,0.75c0,0.4142 -0.3358,0.75 -0.75,0.75h-1.5c-0.4142,0 -0.75,-0.3358 -0.75,-0.75z" fill="currentColor"/>
</svg>
