<svg width="16" height="16" viewBox="0 0 16 16" fill="none" xmlns="http://www.w3.org/2000/svg">
<path d="M9.33346 8C9.33346 7.26349 8.73646 6.66649 7.99995 6.66649C7.26344 6.66649 6.66644 7.26349 6.66644 8C6.66644 8.7365 7.26344 9.33351 7.99995 9.33351C8.73646 9.33351 9.33346 8.7365 9.33346 8ZM10.667 8C10.667 9.47298 9.47293 10.667 7.99995 10.667C6.52696 10.667 5.33293 9.47298 5.33293 8C5.33293 6.52701 6.52696 5.33298 7.99995 5.33298C9.47293 5.33298 10.667 6.52701 10.667 8Z" fill="currentColor"/>
<path d="M7.99995 2.66595C10.6347 2.66594 13.1942 4.18108 14.9052 7.05521C15.2516 7.63711 15.2515 8.36287 14.9052 8.94478C13.1942 11.8189 10.6347 13.334 7.99995 13.334C5.3652 13.334 2.8057 11.8189 1.09474 8.94478C0.748338 8.36288 0.748396 7.63711 1.09474 7.05521C2.8057 4.18109 5.36522 2.66602 7.99995 2.66595ZM7.99995 3.99946C5.91506 3.99953 3.75507 5.19369 2.24073 7.73759C2.14458 7.8992 2.14464 8.10091 2.24073 8.2624C3.75507 10.8063 5.91506 12.0005 7.99995 12.0005C10.0849 12.0005 12.2455 10.8064 13.7598 8.2624C13.8559 8.10087 13.8558 7.89899 13.7598 7.73759C12.2455 5.19364 10.0849 3.99945 7.99995 3.99946Z" fill="currentColor"/>
</svg>
