<svg width="16" height="16" viewBox="0 0 16 16" fill="none" xmlns="http://www.w3.org/2000/svg">
<path d="M7.99978,13.5556c-0.61366,0 -1.11111,-0.4975 -1.11111,-1.1112c0,-0.6136 0.49745,-1.1111 1.11111,-1.1111c0.61367,0 1.11111,0.4975 1.11111,1.1111c0,0.6137 -0.49744,1.1112 -1.11111,1.1112zM7.99978,9.11111c-0.61366,0 -1.11111,-0.49744 -1.11111,-1.11111c0,-0.61366 0.49745,-1.11111 1.11111,-1.11111c0.61367,0 1.11111,0.49745 1.11111,1.11111c0,0.61367 -0.49744,1.11111 -1.11111,1.11111zM7.99978,4.66667c-0.61366,0 -1.11111,-0.49745 -1.11111,-1.11111c0,-0.61367 0.49745,-1.11111 1.11111,-1.11111c0.61367,0 1.11111,0.49744 1.11111,1.11111c0,0.61366 -0.49744,1.11111 -1.11111,1.11111z" fill="currentColor"/>
</svg>
