<svg width="16" height="16" viewBox="0 0 16 16" fill="none" xmlns="http://www.w3.org/2000/svg">
<path d="M10.6669 2.60971C10.6669 2.24163 10.9649 1.9429 11.3329 1.94272C11.7011 1.94272 11.9999 2.24152 11.9999 2.60971V11.9994L13.5282 10.471C13.7886 10.2107 14.2113 10.2107 14.4716 10.471C14.732 10.7314 14.732 11.154 14.4716 11.4144L12.2763 13.6097C11.7557 14.1303 10.9112 14.1302 10.3905 13.6097L8.19524 11.4144C7.93489 11.154 7.93489 10.7314 8.19524 10.471C8.45549 10.211 8.8773 10.2111 9.13762 10.471L10.6669 12.0003V2.60971ZM3.99992 13.2757V3.88608L2.4716 5.4144C2.21127 5.67468 1.78858 5.67468 1.52825 5.4144C1.26791 5.15407 1.26795 4.73139 1.52825 4.47104L3.72356 2.27573C4.24421 1.75508 5.08858 1.75519 5.6093 2.27573L7.80461 4.47104C8.06496 4.73139 8.06496 5.15405 7.80461 5.4144C7.54437 5.67441 7.12254 5.6743 6.86223 5.4144L5.33293 3.8851V13.2757C5.33293 13.6438 5.03496 13.9425 4.66692 13.9427C4.29873 13.9427 3.99992 13.6439 3.99992 13.2757Z" fill="currentColor"/>
</svg>
