<svg width="16" height="16" viewBox="0 0 16 16" fill="none" xmlns="http://www.w3.org/2000/svg">
<path d="M12.6661 12.6667C12.6661 13.0348 12.3673 13.3336 11.9991 13.3336C11.6309 13.3336 11.3321 13.0348 11.3321 12.6667V4.944L10.4718 5.80435C10.2115 6.06476 9.78882 6.06557 9.5284 5.80533C9.26799 5.54506 9.26816 5.12239 9.5284 4.86197L11.5274 2.86197C11.6524 2.73692 11.8223 2.6667 11.9991 2.66666C12.1757 2.66668 12.3448 2.73714 12.4698 2.86197L14.4718 4.86197C14.7318 5.12221 14.7317 5.54401 14.4718 5.80435C14.2115 6.06476 13.7888 6.06557 13.5284 5.80533L12.6661 4.944V12.6667Z" fill="currentColor"/>
<path d="M2.66707 12.0003C2.29888 12.0003 2.00008 11.7015 2.00008 11.3333C2.00008 10.9651 2.29888 10.6663 2.66707 10.6663H8.00008C8.36827 10.6663 8.66707 10.9651 8.66707 11.3333C8.66707 11.7015 8.36827 12.0003 8.00008 12.0003H2.66707Z" fill="currentColor"/>
<path d="M2.66642 5.33365C2.29838 5.33347 2.00041 5.03474 2.00041 4.66666C2.00041 4.29858 2.29838 3.99984 2.66642 3.99966H5.33341C5.7016 3.99966 6.00041 4.29847 6.00041 4.66666C6.00041 5.03485 5.7016 5.33365 5.33341 5.33365H2.66642Z" fill="currentColor"/>
<path d="M2.66675 8.66698C2.29856 8.66698 1.99976 8.36818 1.99976 7.99999C1.99976 7.6318 2.29856 7.333 2.66675 7.333H6.66675C7.03494 7.333 7.33374 7.6318 7.33374 7.99999C7.33374 8.36818 7.03494 8.66698 6.66675 8.66698H2.66675Z" fill="currentColor"/>
</svg>
