<svg width="16" height="16" viewBox="0 0 16 16" fill="none" xmlns="http://www.w3.org/2000/svg">
<path d="M12.6661 3.33334C12.6661 2.96518 12.3673 2.6664 11.9991 2.66635C11.6309 2.66635 11.3321 2.96515 11.3321 3.33334V11.056L10.4718 10.1956C10.2115 9.93524 9.78882 9.93443 9.5284 10.1947C9.26799 10.4549 9.26816 10.8776 9.5284 11.138L11.5274 13.138C11.6524 13.2631 11.8223 13.3333 11.9991 13.3333C12.1757 13.3333 12.3448 13.2629 12.4698 13.138L14.4718 11.138C14.7318 10.8778 14.7317 10.456 14.4718 10.1956C14.2115 9.93524 13.7888 9.93443 13.5284 10.1947L12.6661 11.056V3.33334Z" fill="currentColor"/>
<path d="M2.66707 3.99968C2.29888 3.99968 2.00008 4.29849 2.00008 4.66668C2.00008 5.03487 2.29888 5.33367 2.66707 5.33367H8.00008C8.36827 5.33367 8.66707 5.03487 8.66707 4.66668C8.66707 4.29849 8.36827 3.99968 8.00008 3.99968H2.66707Z" fill="currentColor"/>
<path d="M2.66642 10.6664C2.29838 10.6665 2.00041 10.9653 2.00041 11.3333C2.00041 11.7014 2.29838 12.0002 2.66642 12.0003H5.33341C5.7016 12.0003 6.00041 11.7015 6.00041 11.3333C6.00041 10.9652 5.7016 10.6664 5.33341 10.6664H2.66642Z" fill="currentColor"/>
<path d="M2.66675 7.33302C2.29856 7.33302 1.99976 7.63182 1.99976 8.00001C1.99976 8.3682 2.29856 8.667 2.66675 8.667H6.66675C7.03494 8.667 7.33374 8.3682 7.33374 8.00001C7.33374 7.63182 7.03494 7.33302 6.66675 7.33302H2.66675Z" fill="currentColor"/>
</svg>
